<svg xmlns="http://www.w3.org/2000/svg" xmlns:xlink="http://www.w3.org/1999/xlink" viewBox="0 0 1024 1024"><linearGradient id="a"><stop offset="0" stop-color="#32c0fd"/><stop offset="1" stop-color="#a831fe"/></linearGradient><linearGradient xlink:href="#a" id="b" x1="326.5" x2="954.2" y1="912.3" y2="454.7" gradientUnits="userSpaceOnUse"/><linearGradient xlink:href="#a" id="c" x1="74.1" x2="701.8" y1="566.2" y2="108.5" gradientUnits="userSpaceOnUse"/><linearGradient xlink:href="#a" id="d" x1="126.1" x2="753.7" y1="637.4" y2="179.7" gradientUnits="userSpaceOnUse"/><linearGradient xlink:href="#a" id="e" x1="357.8" x2="985.5" y1="955.2" y2="497.5" gradientUnits="userSpaceOnUse"/><linearGradient xlink:href="#a" id="f" x1="187.4" x2="815.1" y1="721.5" y2="263.9" gradientUnits="userSpaceOnUse"/><path fill="url(#b)" d="M901.6 421a6312.8 6312.8 0 0 0-72.6 57.6c-28.7 23-88 69.6-88 69.6l-4.6 3.5-5 4-11 8.5-22.7 17.8 29.8 103.3 14.4 55.5-60-42.3-.3-.1v-.4l-34.4-117-.1-.6a24 24 0 0 1 7.5-25 1011 1011 0 0 1 36.5-29.1l10.7-8.3 9.9-7.8a5227 5227 0 0 0 87.2-69c23.9-19 48.6-38.8 73.1-58a24 24 0 0 1 29.5 38z"/><path fill="url(#c)" d="M492 297.7 451.8 415l-.2.6a24 24 0 0 1-22.7 16.2l-274.5-.3a24 24 0 0 1 0-48l257.4.3 34.4-99.8 21.1-54.5z"/><path fill="url(#d)" d="m787.1 384.1-59.5 47.7-119.8.1h-.5a24 24 0 0 1-22.7-16.2l-89.3-259.5a24 24 0 1 1 45.4-15.6l83.7 243.3 103.1-.1z"/><path fill="url(#e)" d="M769.3 847.9A24 24 0 0 1 736 854L520.4 706.2 422 772.5l-46.7 29 20.5-67.4.5-1.5.4-.3 109.5-74.5.6-.5a24 24 0 0 1 27 0L763 814.5a24 24 0 0 1 6.2 33.4z"/><path fill="url(#f)" d="M391.7 577.7 315 844.3a24 24 0 0 1-46.2-13.3L341 580.2l-78.9-60.6-49-38.9 78.2 1.3 91.6 69.8.3.2a24 24 0 0 1 8.5 25.7z"/></svg>