<svg xmlns="http://www.w3.org/2000/svg" xml:space="preserve" width="500" height="500"><g transform="matrix(.53 0 0 .53 385.8 280.44)"><linearGradient id="a" x1="326.502" x2="954.185" y1="912.323" y2="454.66" gradientUnits="userSpaceOnUse"><stop offset="0%" stop-color="#32c0fd"/><stop offset="100%" stop-color="#a831fe"/></linearGradient><path fill="url(#a)" d="M901.6 421.05c-24.28 18.88-48.83 38.55-72.57 57.58-28.77 23.06-88.05 69.54-88.05 69.54l-4.59 3.58-4.99 4-10.91 8.45-22.81 17.83 29.82 103.23 14.41 55.52-60.07-42.26-.22-.15-.1-.36-34.18-117.14-.17-.57c-2.57-8.8.05-18.68 7.49-25.01 11.83-10.05 24.37-19.73 36.5-29.09 3.59-2.78 7.18-5.55 10.76-8.33l9.85-7.79c29.12-22.33 58.67-46.01 87.24-68.91 23.88-19.13 48.57-38.91 73.12-58.01 10.46-8.13 25.54-6.25 33.68 4.21 8.13 10.47 6.25 25.55-4.21 33.68z" transform="translate(-778.54 -559.44)" vector-effect="non-scaling-stroke"/></g><g transform="matrix(.53 0 0 .53 139.75 159.98)"><linearGradient id="b" x1="74.131" x2="701.814" y1="566.197" y2="108.534" gradientTransform="translate(130.35 229.5)" gradientUnits="userSpaceOnUse"><stop offset="0%" stop-color="#32c0fd"/><stop offset="100%" stop-color="#a831fe"/></linearGradient><path fill="url(#b)" d="m492.08 297.7-40.35 117.29-.22.64c-3.23 9.43-12.18 16.2-22.7 16.2h-.03l-274.46-.37c-13.25-.02-23.98-10.78-23.97-24.03.02-13.24 10.77-23.97 24-23.97h.04l257.31.35 34.35-99.82 21.2-54.49z" transform="translate(-311.21 -330.66)" vector-effect="non-scaling-stroke"/></g><g transform="matrix(.53 0 0 .53 313.17 132.34)"><linearGradient id="c" x1="126.054" x2="753.737" y1="637.411" y2="179.747" gradientTransform="translate(494.01 124.37)" gradientUnits="userSpaceOnUse"><stop offset="0%" stop-color="#32c0fd"/><stop offset="100%" stop-color="#a831fe"/></linearGradient><path fill="url(#c)" d="m787.15 384.11-59.59 47.68-119.8.13c-.17.01-.34.01-.51.01-9.96 0-19.27-6.25-22.69-16.2l-89.24-259.55c-4.31-12.53 2.35-26.19 14.89-30.5 12.53-4.31 26.19 2.36 30.5 14.89l83.66 243.33 103.14-.11z" transform="translate(-640.58 -278.15)" vector-effect="non-scaling-stroke"/></g><g transform="matrix(.53 0 0 .53 278.35 383.79)"><linearGradient id="d" x1="357.771" x2="985.454" y1="955.209" y2="497.545" gradientUnits="userSpaceOnUse"><stop offset="0%" stop-color="#32c0fd"/><stop offset="100%" stop-color="#a831fe"/></linearGradient><path fill="url(#d)" d="M769.33 847.89c-4.66 6.78-12.17 10.43-19.82 10.43-4.68 0-9.4-1.36-13.55-4.21l-215.6-147.87-98.27 66.27-46.71 28.99 20.55-67.39.47-1.53.41-.28 109.48-74.55.02-.02.59-.4c7.94-5.4 18.68-5.72 27.08.04l229.13 157.16c10.93 7.49 13.71 22.43 6.22 33.36z" transform="translate(-574.46 -755.74)" vector-effect="non-scaling-stroke"/></g><g transform="matrix(.53 0 0 .53 135.35 339.28)"><linearGradient id="e" x1="187.398" x2="815.081" y1="721.543" y2="263.879" gradientUnits="userSpaceOnUse"><stop offset="0%" stop-color="#32c0fd"/><stop offset="100%" stop-color="#a831fe"/></linearGradient><path fill="url(#e)" d="m391.67 577.74-76.61 266.54c-3.03 10.52-12.63 17.37-23.06 17.37-2.19 0-4.42-.3-6.64-.94-12.74-3.66-20.1-16.95-16.43-29.69l72.08-250.77-78.91-60.69-49.02-38.81 78.23 1.25 91.62 69.84.23.18c7.63 5.82 11.32 15.94 8.51 25.72z" transform="translate(-302.84 -671.2)" vector-effect="non-scaling-stroke"/></g><path fill="#f10100" d="M268.779 46.172c-2.328-5.206-5.28-11.185-3.778-16.688 1.585-5.81 7.56-9.549 12.384-13.152 5.295-3.953 11.166-7.934 17.698-8.93 9.502-1.449 20.099-.038 28.447 4.728 8.054 4.598 13.57 13.104 17.88 21.314 4.595 8.752 6.305 18.83 7.88 28.588 1.831 11.357.765 23.005 1.757 34.467.406 4.697.956 9.387 1.717 14.04 2.124 12.987 8.44 25.52 7.94 38.67-.348 9.154-7.556 26.426-7.556 26.426s-2.808-13.94-4.829-20.748c-1.47-4.953-2.075-10.525-5.293-14.567-3.143-3.946-9.036-4.763-12.708-8.222-5.145-4.85-8.42-11.363-12.565-17.092-16.503-22.817-37.478-43.127-48.97-68.832z" vector-effect="non-scaling-stroke"/><path fill="#c10c0b" d="M344.416 83.896s-6.527-21.781-11.09-32.164c-2.738-6.226-5.838-12.355-9.719-17.94-3.872-5.574-14.445-15.658-13.394-15.334 1.05.323 8.207-.374 11.596 1.555 8.7 4.953 14.748 14.329 18.628 23.557 4.559 10.846 4.254 23.248 4.464 35.012.032 1.778-.485 5.314-.485 5.314zM318.85 46.212c7.781-.678 9.168 12.693 12.97 19.516 3.884 6.971 7.722 14.106 9.98 21.76 1.09 3.693 1.657 11.434 1.657 11.434s-5.196-9.917-8.505-14.405c-3.413-4.628-7.516-8.719-11.597-12.769-3.579-3.55-10.202-5.155-11.274-10.08-1.195-5.496 1.166-14.968 6.768-15.456zm9.816 40.422c-3.955-1.063-11.158 1.15-11.158 1.15s-1.549 13.083-.54 24.064c.645.837 1.282 1.68 1.916 2.525 4.3 5.73 7.767 12.243 13.03 17.092 2.025 1.866 4.665 2.961 7.175 4.196.085-1.35.128-2.638.082-3.67-.176-3.934-5.45-10.058-1.97-11.7 3.125-1.476 5.195 4.986 7.245 7.921 4.549 6.513 10.946 21.14 10.946 21.14s-1.177-19.163-3.883-28.354c-1.683-5.718-4.382-11.189-7.56-16.263-4.068-6.497-7.57-14.783-14.532-17.835a5.288 5.288 0 0 0-.747-.265z" opacity=".87" vector-effect="non-scaling-stroke"/><path fill="#f10100" d="M211.027 73.042s1.242-11.896 4.748-16.365c2.24-2.855 6.108-3.983 9.435-5.434 4.47-1.95 9.66-2.057 13.98-4.324 1.283-.673 2.044-2.218 3.415-2.687.904-.31 2.869.02 2.869.02s.161-2.621.606-3.838c.647-1.774 1.344-3.822 2.93-4.849 3.2-2.073 7.58-1.94 11.353-1.394 1.642.237 4.566 1.98 4.566 1.98s-1.297-4.307-.404-6.162c3.029-6.29 10.246-11.267 17.193-11.96 10.776-1.075 21.919 5.501 29.81 12.918 5.026 4.724 9.242 11.546 9.39 18.443.066 3.087-3.745 5.342-3.845 8.428-.184 5.72 4.399 10.585 6.105 16.048 1.798 5.755 4.325 11.532 4.334 17.562.01 6.418-4.56 18.705-4.56 18.705" vector-effect="non-scaling-stroke"/><path fill="#c10c0b" d="M319.532 108.624s-6.068-13.146-7.597-20.163c-.815-3.738-2.853-8.231-.788-11.454 1.127-1.759 5.859-2.222 5.859-2.222s-9.779 1.266-14.668.95c-7.903-.514-15.745-2.253-23.314-4.587-7.482-2.307-21.597-9.233-21.597-9.233s14.1 7.607 18.405 14.001c4.599 6.83 6.465 23.84 6.465 23.84l38.143 10.586m-17.09-44.857c-1.525-1.823.01-5.023-1.293-7.011-4.144-6.326-11.367-11.34-18.81-12.688-2.303-.417-4.49 1.526-6.828 1.637-4.077.192-11.065 2.224-12.122-1.718-.665-2.479 3.59-4.053 6.06-4.748 3.408-.958 7.009 1.32 10.547 1.233 3.276-.08 6.494-2.31 9.697-1.616 5.891 1.275 11.419 5.241 15.011 10.081 1.847 2.489.725 6.524 2.728 8.89 1.8 2.126 6.379 1.176 7.475 3.737.847 1.979.033 5.223-1.9 6.172-3.375 1.659-8.15-1.084-10.564-3.97z" opacity=".87" vector-effect="non-scaling-stroke"/><g transform="matrix(.26 .08 -.08 .26 258.84 105.81)"><radialGradient id="f" cx="-130.53" cy="187.19" r="256.71" fx="-130.53" fy="187.19" gradientTransform="translate(-384.75 81.25)" gradientUnits="userSpaceOnUse"><stop offset="0%" stop-color="#ccc"/><stop offset="100%" stop-color="#666"/></radialGradient><path fill="url(#f)" d="M-337.39 82.807c28.807-7.11 58.266 12.35 87.883 14.142 52.135 3.154 104.36-7.403 156.57-6.06 52.386 1.345 104.26 17.272 156.57 14.141 16.151-.967 33.062-17.45 47.477-10.102 8.863 4.519 10.805 17.413 12.122 27.274 2.932 21.95-9.788 43.518-10.102 65.66-.307 21.715 15.129 44.108 8.081 64.65-4.636 13.512-17.535 23.9-30.305 30.305-16.728 8.39-36.877 6.978-55.558 8.081-50.774 2.998-101.67-4.214-152.53-4.04-50.535.172-101.19 9.536-151.52 5.05-28.812-2.567-60.285-2.912-84.853-18.183-17.508-10.882-26.384-17.137-30.305-37.376-4.073-21.023 7.04-51.535 10.102-72.73 2.552-17.663-7.98-37.576 0-53.538 6.776-13.553 21.655-23.643 36.365-27.274z" transform="translate(130.54 -187.19)" vector-effect="non-scaling-stroke"/></g><path fill="#fff" d="M214.278 66.826c7.585.661 13.575 7.08 20.772 9.717 12.667 4.64 26.264 6.34 39.073 10.597 12.85 4.27 24.61 11.634 37.737 14.937 4.053 1.02 9.32-1.236 12.394 1.438 1.89 1.644 1.518 4.562 1.191 6.78-.727 4.939-5.294 8.606-6.835 13.339-1.511 4.642 1.367 7.918-1.732 11.796-2.039 2.55-5.911 3.802-9.488 4.207-4.687.531-9.57-1.303-14.257-2.486-12.738-3.214-24.833-8.632-37.407-12.46-12.493-3.803-25.622-5.641-37.758-10.43-6.946-2.741-14.697-5.207-19.756-10.355-3.604-3.668-5.383-5.687-5.014-10.332.384-4.827 4.6-7.83 6.757-12.15 1.798-3.601.513-8.68 3.54-11.503 2.569-2.396 6.91-3.433 10.784-3.095z" opacity=".78" vector-effect="non-scaling-stroke"/><g transform="matrix(.26 .08 -.08 .26 356.73 185.11)"><radialGradient id="g" cx="290.91" cy="366.14" r="65.434" fx="290.91" fy="366.14" gradientTransform="translate(227.98 305.69)" gradientUnits="userSpaceOnUse"><stop offset="0%" stop-color="#ececec"/><stop offset="100%" stop-color="#666"/></radialGradient><path fill="url(#g)" d="M273.75 308.07c-10.984 2.733-23.851 4.622-31.315 13.132-10.126 11.545-10.464 29.18-12.122 44.447-1.456 13.407-5.354 29.115 2.02 40.406 8.234 12.608 25.42 18.732 40.406 20.203 17.723 1.74 37.107-3.68 51.518-14.142 14.36-10.425 27.27-26.819 29.294-44.447 1.885-16.405-5.524-34.763-17.173-46.467-10.147-10.196-26.15-13.23-40.406-15.152-7.371-.994-15.005.224-22.223 2.02z" transform="translate(-290.91 -366.14)" vector-effect="non-scaling-stroke"/></g><path fill="#ececec" d="M357.176 170.65c-2.196-.056-4.7-.367-6.535.84-2.49 1.637-4.634 4.594-5.732 7.364-.964 2.432-3.796 5.285-3 7.777.89 2.783 5.632 7.846 8.359 8.894 3.225 1.24 8.104.55 11.34-.664 1.8-.675 2.728-3.875 4.393-5.605 1.317-1.368 3.507-1.17 4.076-2.58 1.198-2.97-.215-6.11-1.79-8.9-1.372-2.43-4.728-3.652-7.295-4.747-1.328-.566-2.374-2.343-3.817-2.38z" opacity=".79" vector-effect="non-scaling-stroke"/></svg>