<svg xmlns="http://www.w3.org/2000/svg" viewBox="0 0 1024 1024"><linearGradient id="a" x1="264.8" x2="1064.3" y1="1046.1" y2="463.2" gradientUnits="userSpaceOnUse"><stop offset="0" stop-color="#32C0FD"/><stop offset="1" stop-color="#A831FE"/></linearGradient><path fill="url(#a)" d="M997.3 420.3c-30.9 24-62.2 49.1-92.4 73.3-36.6 29.4-112.2 88.6-112.2 88.6l-5.9 4.6-6.4 5.1-13.9 10.8-29.1 22.7 38 131.5 18.4 70.7-76.5-53.8-.3-.2-.1-.5-43.5-149.2-.2-.7a30.7 30.7 0 0 1 9.5-31.9c15.1-12.8 31-25.1 46.5-37.1l13.7-10.6 12.5-9.9c37.1-28.4 74.7-58.6 111.1-87.8 30.4-24.4 61.9-49.6 93.1-73.9a30.5 30.5 0 0 1 42.9 5.4 30.4 30.4 0 0 1-5.2 42.9z"/><linearGradient id="b" x1="-56.7" x2="742.8" y1="605.2" y2="22.3" gradientUnits="userSpaceOnUse"><stop offset="0" stop-color="#32C0FD"/><stop offset="1" stop-color="#A831FE"/></linearGradient><path fill="url(#b)" d="m475.7 263.2-51.4 149.4-.3.8a30.5 30.5 0 0 1-28.9 20.6l-349.6-.5a30.5 30.5 0 1 1 .1-61.1h.1l327.8.4 43.5-127 27-69.4 31.7 86.8z"/><linearGradient id="c" x1="9.4" x2="809" y1="695.9" y2="113" gradientUnits="userSpaceOnUse"><stop offset="0" stop-color="#32C0FD"/><stop offset="1" stop-color="#A831FE"/></linearGradient><path fill="url(#c)" d="M851.5 373.3 775.6 434l-152.6.2h-.6c-12.7 0-24.5-8-28.9-20.6L479.8 83a30.6 30.6 0 1 1 57.9-19.9L644.2 373l131.4-.1 75.9.4z"/><linearGradient id="d" x1="304.6" x2="1104.1" y1="1100.7" y2="517.8" gradientUnits="userSpaceOnUse"><stop offset="0" stop-color="#32C0FD"/><stop offset="1" stop-color="#A831FE"/></linearGradient><path fill="url(#d)" d="M828.8 964a30.6 30.6 0 0 1-42.5 7.9L511.7 783.6 386.5 868 327 904.9l26.2-85.8.6-1.9.5-.4 139.5-95 .8-.5a30.6 30.6 0 0 1 34.5 0L821 921.5a30.6 30.6 0 0 1 7.8 42.5z"/><linearGradient id="e" x1="87.6" x2="887.1" y1="803.1" y2="220.1" gradientUnits="userSpaceOnUse"><stop offset="0" stop-color="#32C0FD"/><stop offset="1" stop-color="#A831FE"/></linearGradient><path fill="url(#e)" d="m347.8 619.9-97.6 339.5a30.6 30.6 0 0 1-58.8-16.9l91.8-319.4-100.5-77.3-62.4-49.4 99.6 1.6 116.7 89 .3.2a30.7 30.7 0 0 1 10.9 32.7z"/></svg>