<svg height="54" width="250" xmlns="http://www.w3.org/2000/svg"><g fill="none" fill-rule="evenodd"><rect fill="#24273f" height="53" rx="10" width="249" x=".5" y=".5"/><g fill="#fff"><text font-family="Helvetica-Bold, Helvetica" font-size="9" font-weight="bold"><tspan x="53" y="20">LEAVE A REVIEW ON</tspan></text><text font-family="Helvetica-Bold, Helvetica" font-size="16" font-weight="bold"><tspan x="52" y="40">Product Hunt</tspan></text><path d="m241.5 23.6-11.6-.3-3.9-10.9-3.9 11-11.6.2 9.2 7-3.3 11.2 9.6-6.5 9.6 6.5-3.3-11.1 9.2-7zm-15.5 8.4-4.6 3.1 1.6-5.4-4.5-3.4 5.6-.1 1.9-5.3 1.9 5.3 5.6.1-4.5 3.4 1.6 5.4z"/></g><path d="m42 27.5a15.5 15.5 0 1 1 -31 0 15.5 15.5 0 0 1 31 0" fill="#ea532a"/><path d="m28.4 28h-4.3v-4.7h4.3c1.3 0 2.3 1 2.3 2.3s-1 2.4-2.3 2.4m0-7.8h-7.4v15.5h3v-4.6h4.4a5.5 5.5 0 0 0 0-10.9" fill="#fff"/></g></svg>