<svg xmlns="http://www.w3.org/2000/svg" viewBox="0 0 1096.9 900" xmlns:v="https://vecta.io/nano"><style><![CDATA[.B{opacity:.9}.C{color-interpolation-filters:sRGB}.D{filter:url(#C)}]]></style><filter id="A" height="1.6" width="1.2" x="-.1" y="-.3" class="C"><feGaussianBlur stdDeviation="19.8"/></filter><filter id="B" height="1.2" width="1.2" x="-.1" y="-.1" class="C"><feGaussianBlur stdDeviation="4.1"/></filter><filter id="C" class="C"><feGaussianBlur stdDeviation="3.9"/></filter><filter id="D" height="1.2" width="1.1" x="0" y="-.1" class="C"><feGaussianBlur stdDeviation="3.9"/></filter><radialGradient id="E" cx="-130.5" cy="187.2" gradientTransform="matrix(2.4379 -.02685 .00743 .67438 186.3 57.4)" gradientUnits="userSpaceOnUse" r="256.7"><stop offset="0" stop-color="#ccc"/><stop offset="1" stop-color="#666"/></radialGradient><radialGradient id="F" cx="290.9" cy="366.1" gradientTransform="matrix(2.2195 .01384 -.01549 2.4843 -349.1 -547.5)" gradientUnits="userSpaceOnUse" r="65.4"><stop offset="0" stop-color="#ececec"/><stop offset="1" stop-color="#666"/></radialGradient><path d="m371.4 257.2c-19.5-22.3-43.3-47.4-44.3-77-1-31.3 23-59 41.4-84.3 20.3-27.7 43.3-56.4 74.2-71.3 45-21.7 99.8-31 148.5-20 47 10.5 87.4 44.3 121.3 78.5 36.2 36.4 60 83.8 82.8 129.9 26.4 53.6 39 113 61.4 168.4 9.2 22.7 19 45.2 30 67.1 30.3 61.2 80.8 113.8 98.4 179.9 12.3 46 2.9 142.7 2.9 142.7s-35.2-65-55.7-95.6c-14.8-22.4-26.4-49.1-48.5-64.3-21.6-14.8-52.1-9.8-75.7-21.4-33-16.2-59.1-43.5-88.4-65.6-116.8-88.1-252-156.9-348.3-267z" fill="#f10100"/><g fill="#c10c0b" class="D"><g transform="matrix(1.413 0 0 1.413 596.9 297.2)"><path d="M149.5 24.2S103-45.3 75.8-76.8a390.3 390.3 0 0 0-53.6-52.5c-19.6-15.4-67.7-39.4-63.6-39.4 4 0 28.4-10.2 42.4-7.1 36 8 67.3 34.4 91 62.6C119.6-80 132-36 145.4 5c2 6.2 4 19.2 4 19.2z" class="B"/><path d="M17.2-80.8c26.6-10.8 46 34.6 66.6 54.5C105-6 126.2 15 142.4 39.4c7.9 11.8 18.2 38.4 18.2 38.4s-29-29.3-45.4-41.5A413.2 413.2 0 0 0 60.6 4C44.2-4.6 19.2-3 10.1-19.2c-10.1-18-12-53.9 7-61.6z" class="B"/></g><path d="M95 51.4c-15 .5-38.4 16.3-38.4 16.3s7 48.1 21 86l9.3 6.9c20.7 15.6 39.3 35 62.6 46.5 9 4.4 19.4 5.4 29.5 7-1-4.9-2-9.5-3.2-13.1-4.4-13.8-29-29.8-18.2-39.4 9.7-8.7 23.2 12 33.3 20.2C213.3 200 250 245 250 245s-22.5-66.7-41-96.4A232.7 232.7 0 0 0 166.8 99C146 80.3 125.7 54.7 98 51.5c-.9-.1-1.9-.2-2.9-.1z" transform="matrix(1.413 0 0 1.3845 596.9 298.4)" class="B"/></g><path d="m130.1 475.6s-12-61-1.4-88.5c6.8-17.6 24.3-29 38.6-41.4 19.2-16.5 44.8-25 62.8-42.8 5.3-5.3 6.7-14.1 12.8-18.5 4-3 14.3-4.3 14.3-4.3s-3.2-13.3-2.9-20c.5-9.8.9-21 7.2-28.6 12.7-15.1 34.6-21.2 54.2-24.2 8.5-1.4 25.7 2.8 25.7 2.8s-13-19.4-11.4-30a117.8 117.8 0 0 1 67-85.6c52-21.8 117.3-6.2 167.8 18.6 32.2 15.8 63.5 43.2 74.8 77.2 5 15.3-10.5 32.3-6.2 47.7 7.8 28.7 38 45.9 54.8 70.4 17.7 25.8 39 50.6 48.3 80.6 9.9 31.8 6 99.8 6 99.8" fill="#f10100"/><g transform="matrix(1.413 0 0 1.413 596.9 297.2)" fill="#c10c0b"><path d="M86.9 134.3S51.3 94.7 38.4 71.7c-7-12.3-19-25.8-15.2-39.4 2-7.4 18.2-14.1 18.2-14.1S8.4 33.2-9 37.4a375 375 0 0 1-86.9 9c-28.7 0-85.8-9-85.8-9s57.7 11.4 79.8 29.2c23.5 19 48.5 76.8 48.5 76.8l145.4-4" class="B D"/><path d="M-14.1 1c-7.4-4.8-5.4-17.7-12.2-23.2A109.7 109.7 0 0 0-106-46.5c-8.5 1-14.1 10.2-22.2 13.1-14.1 5.1-36.5 19.8-44.4 7.1-5-8 8.2-18.1 16.1-23.2 11-7 26-3 38.4-7.1 11.4-3.8 20.3-15.1 32.3-16.2a98.2 98.2 0 0 1 63.7 19.2C-13-46.8-12.6-31.4-3-25.3c8.6 5.5 23.7-2.7 30.3 5 5 6.1 5.7 18.4 0 23.8C17.2 13-2.5 8.5-14.1 1z" filter="url(#D)" class="B"/></g><path d="m-337.4 82.8c28.8-7.1 58.3 12.4 87.9 14.1 52.1 3.2 104.4-7.4 156.6-6 52.3 1.3 104.2 17.3 156.5 14.1 16.2-1 33-17.4 47.5-10 8.9 4.4 10.8 17.3 12.1 27.2 3 22-9.8 43.5-10 65.7-.4 21.7 15 44 8 64.6-4.6 13.5-17.5 24-30.3 30.3-16.7 8.4-36.9 7-55.6 8.1-50.7 3-101.6-4.2-152.5-4-50.5.1-101.2 9.5-151.5 5-28.8-2.6-60.3-2.9-84.9-18.2-17.5-10.9-26.3-17.1-30.3-37.4-4-21 7-51.5 10.1-72.7 2.6-17.6-8-37.6 0-53.5a56.6 56.6 0 0 1 36.4-27.3z" fill="url(#E)" transform="matrix(1.413 0 0 1.413 596.9 297.2)"/><path d="m-601.6-410.6c27.4-6 55.4 10.2 83.5 11.6 49.5 2.6 99.1-6 148.7-5 49.8 1.1 99 14.3 148.8 11.7 15.3-.8 31.4-14.4 45-8.3 8.5 3.7 10.3 14.4 11.6 22.5 2.8 18.1-9.3 36-9.6 54.3-.3 17.9 13.4 26.3 6.7 43.3-4.4 11.1-16.7 19.7-28.8 25-16 7-35 5.8-52.8 6.7-48.2 2.5-96.6-3.5-144.9-3.3-48 0-96.1 7.8-144 4.1-27.3-2.1-57.2-2.4-80.6-15-16.6-9-25-14.2-28.7-30.9-4-17.4 7.7-32.5 10.6-50 2.4-14.6-7.6-31 0-44.2a53.6 53.6 0 0 1 34.5-22.6z" fill="#fff" filter="url(#A)" opacity=".8" transform="matrix(1.413 0 0 1.413 982 1016.6)"/><path d="M273.8 308c-11 2.8-23.9 4.7-31.4 13.2-10 11.5-10.4 29.2-12 44.4-1.5 13.5-5.4 29.2 2 40.5 8.2 12.6 25.4 18.7 40.3 20.2a77.6 77.6 0 0 0 51.6-14.2c14.3-10.4 27.2-26.8 29.3-44.4a59.8 59.8 0 0 0-17.2-46.5C326.2 311 310.2 308 296 306.1a60 60 0 0 0-22.3 2z" fill="url(#F)" transform="matrix(1.413 0 0 1.413 596.9 297.2)"/><path d="M6.8-190c-7 1.8-15.4 3-20.2 8.5a54.9 54.9 0 0 0-11.8 28.7c-1 8.6-7.5 20.3-2.8 27.5 5.3 8.2 25 20.2 34.7 21.1C18-103 33-109.6 42.4-116.3c5.2-3.8 5.3-14.8 9.1-21.8 3-5.6 10.2-6.9 10.8-12 1.2-10.5-6-19.3-13.6-26.9-6.5-6.5-18.4-7.5-27.6-8.7-4.7-.7-9.6-5.4-14.3-4.3z" fill="#ececec" filter="url(#B)" opacity=".8" transform="matrix(1.5748 0 0 1.5748 979.3 1040.3)"/></svg>