<svg xmlns="http://www.w3.org/2000/svg" viewBox="0 0 512 96" xmlns:v="https://vecta.io/nano"><path d="M0 0h96v96H0zm104 0h96v96h-96zm104 0h96v96h-96zm104 0h96v96h-96z" fill="#00b67a"/><path d="m464 0h48v96h-48z" fill="#dcdce6"/><path d="m416 0h48v96h-48z" fill="#00b67a"/><path d="M48 65l15-4 6 19zm34-25H56l-8-24-8 24H14l21 15-8 25 21-15 13-10zm70 25l15-4 6 19zm34-25h-26l-8-24-8 24h-26l21 15-8 25 21-15 13-10zm70 25l15-4 6 19zm34-25h-26l-8-24-8 24h-26l21 15-8 25 21-15 13-10zm70 25l15-4 6 19zm34-25h-26l-8-24-8 24h-26l21 15-8 25 21-15 13-10zm70 25l15-4 6 19zm34-25h-26l-8-24-8 24h-26l21 15-8 25 21-15 13-10z" fill="#fff"/></svg>