<svg viewBox="0 0 512 512" xmlns="http://www.w3.org/2000/svg"><path d="M473.655 88.275H38.345C17.167 88.275 0 105.442 0 126.62v258.76c0 21.177 17.167 38.345 38.345 38.345h435.31c21.177 0 38.345-17.167 38.345-38.345V126.62c0-21.178-17.167-38.345-38.345-38.345z" fill="#41479b"/><path d="M8.828 256h15.334l81.77-53.575V256h44.138v-53.575L231.84 256h15.333c4.875 0 8.828-3.954 8.828-8.83v-7l-70.15-45.964H256v-44.138h-70.155L256 104.105v-7.002c0-4.876-3.953-8.828-8.828-8.828h-15.334l-81.77 53.574V88.27H105.93v53.574L26.844 90.032c-9.234 2.9-16.954 9.203-21.71 17.434l65.022 42.6H0v44.14h70.155L0 240.168v7c0 4.876 3.95 8.83 8.828 8.83z" fill="#f5f5f5"/><path d="M256 158.896H141.24v-70.62h-26.48v70.62H0v26.482h114.76v70.62h26.48v-70.62H256z" fill="#ff4b55"/><path d="M8.227 102.9l72.663 47.17h16.213L14.607 96.52c-2.37 1.87-4.51 4.013-6.38 6.383zm158.056 47.168l88.374-57.366c-1.536-2.6-4.246-4.427-7.485-4.427h-1.91l-95.193 61.793zm-76.81 44.138L1.27 251.462C2.79 254.124 5.54 256 8.827 256h1.665l95.196-61.794zm166.387 53.66l-82.666-53.66H156.98l93.874 60.936c2.812-1.305 4.74-4.04 5.006-7.277z" fill="#ff4b55"/><path d="M130.67 304.13l6.664 21.997 21.353-8.505c1.822-.726 3.478 1.352 2.366 2.966l-13.044 18.924 19.96 11.39c1.7.973 1.11 3.563-.85 3.7l-22.93 1.6 3.54 22.71c.3 1.938-2.093 3.09-3.42 1.646l-15.54-16.928-15.548 16.928c-1.326 1.444-3.72.29-3.418-1.646l3.54-22.71-22.928-1.6c-1.957-.137-2.55-2.727-.845-3.7l19.963-11.39-13.044-18.924c-1.113-1.614.543-3.692 2.365-2.966l21.352 8.505 6.663-21.997c.57-1.877 3.23-1.877 3.8 0zm262.61-156.4l3.254 10.744 10.43-4.154c.89-.354 1.7.66 1.155 1.45l-6.38 9.244 9.75 5.565c.832.47.543 1.74-.41 1.8l-11.2.78 1.73 11.09c.145.947-1.025 1.51-1.67.804l-7.598-8.27-7.596 8.27c-.65.705-1.818.142-1.67-.804l1.73-11.093-11.2-.783c-.958-.065-1.247-1.33-.415-1.804l9.753-5.565-6.37-9.246c-.547-.79.263-1.806 1.152-1.45l10.43 4.152 3.255-10.744c.28-.92 1.58-.92 1.857 0zm-72.578 82.474l3.255 10.745 10.43-4.16c.89-.358 1.7.66 1.156 1.45l-6.37 9.24 9.75 5.564c.832.474.543 1.74-.413 1.806l-11.2.783 1.73 11.09c.148.948-1.022 1.51-1.67.805l-7.595-8.27-7.595 8.27c-.648.704-1.817.14-1.67-.805l1.73-11.092-11.2-.78c-.956-.066-1.245-1.33-.413-1.805l9.75-5.566-6.37-9.247c-.544-.79.266-1.804 1.155-1.45l10.43 4.154 3.256-10.747c.278-.916 1.576-.916 1.854 0zm141.24-35.31l3.256 10.744 10.43-4.154c.89-.354 1.7.66 1.156 1.45l-6.37 9.244 9.75 5.565c.832.474.543 1.74-.413 1.806l-11.2.78 1.73 11.09c.15.942-1.02 1.51-1.67.8l-7.59-8.27-7.59 8.27c-.647.704-1.816.14-1.67-.805l1.73-11.093-11.2-.78c-.955-.07-1.244-1.334-.412-1.808l9.75-5.566-6.37-9.245c-.544-.79.266-1.804 1.155-1.45l10.43 4.154 3.257-10.746c.277-.916 1.575-.916 1.853 0zm-68.662 141.24l3.254 10.746 10.43-4.155c.89-.354 1.7.66 1.155 1.45l-6.38 9.244 9.75 5.56c.832.47.543 1.74-.41 1.8l-11.2.78 1.73 11.095c.145.947-1.025 1.51-1.67.804l-7.598-8.27-7.596 8.27c-.65.704-1.818.14-1.67-.805l1.73-11.093-11.2-.782c-.958-.064-1.247-1.33-.415-1.804l9.753-5.566-6.37-9.247c-.547-.79.263-1.805 1.152-1.45l10.43 4.154 3.255-10.745c.28-.916 1.58-.916 1.857 0zm25.18-86.622l-2.612 7.836-8.26.064c-1.068.01-1.512 1.373-.65 2.008l6.643 4.907-2.49 7.875c-.32 1.02.84 1.863 1.71 1.24l6.72-4.802 6.72 4.803c.87.62 2.03-.222 1.71-1.24l-2.49-7.876 6.647-4.907c.86-.636.417-2-.652-2.008l-8.26-.064-2.61-7.836c-.34-1.014-1.776-1.014-2.114 0z" fill="#f5f5f5"/></svg>