<svg xmlns="http://www.w3.org/2000/svg" viewBox="0 0 512 512"><path d="M473.655 88.275H38.345C17.167 88.275 0 105.442 0 126.62v258.76c0 21.177 17.167 38.345 38.345 38.345h435.31c21.177 0 38.345-17.167 38.345-38.345V126.62c0-21.178-17.167-38.345-38.345-38.345z" fill="#FF4B55"/><path d="M85.007 140.73l8.416 25.235 26.6.206c3.444.03 4.872 4.43 2.1 6.47l-21.397 15.8 8.023 25.37c1.03 3.285-2.7 6-5.51 3.998l-21.64-15.47-21.64 15.47c-2.8 2.003-6.54-.714-5.5-3.997l8.02-25.362-21.398-15.8c-2.77-2.045-1.344-6.44 2.1-6.466l26.6-.204L78.2 140.74c1.09-3.268 5.71-3.268 6.8 0zm96.593 6.22l6.034 8.227 9.74-3.046c1.26-.39 2.297 1.05 1.525 2.12l-5.97 8.28 5.904 8.32c.765 1.08-.28 2.51-1.54 2.11l-9.72-3.11-6.088 8.19c-.79 1.06-2.474.506-2.48-.814l-.044-10.206-9.67-3.26c-1.25-.425-1.246-2.197.01-2.61l9.69-3.197.113-10.203c.013-1.318 1.702-1.86 2.483-.794zm-36.743-24.53l10.144 1.1 4.33-9.24c.56-1.196 2.32-.99 2.59.302l2.09 9.988 10.13 1.26c1.31.163 1.66 1.9.514 2.558l-8.855 5.07 1.93 10.02c.25 1.298-1.294 2.166-2.273 1.28l-7.56-6.856-8.93 4.932c-1.156.64-2.46-.563-1.92-1.768l4.184-9.308-7.45-6.972c-.964-.898-.225-2.51 1.09-2.367zm16.038 98.893l-6.034 8.23-9.73-3.046c-1.26-.394-2.3 1.043-1.525 2.115l5.96 8.28-5.905 8.322c-.766 1.077.28 2.508 1.54 2.105l9.717-3.12 6.09 8.19c.79 1.06 2.474.504 2.48-.816l.044-10.205 9.67-3.26c1.25-.424 1.247-2.196-.01-2.61l-9.69-3.196-.112-10.204c-.016-1.32-1.703-1.86-2.484-.793zm36.74-23.053l-10.145 1.103-4.328-9.24c-.56-1.197-2.32-.992-2.59.3l-2.088 9.99-10.126 1.26c-1.31.162-1.66 1.9-.513 2.557l8.855 5.07-1.93 10.02c-.25 1.298 1.294 2.166 2.273 1.28l7.56-6.856 8.93 4.932c1.157.64 2.462-.563 1.92-1.768l-4.183-9.308 7.452-6.972c.967-.898.228-2.51-1.087-2.367z" fill="#FFE15A"/></svg>