<svg viewBox="0 0 512.001 512.001" xmlns="http://www.w3.org/2000/svg"><path d="M473.655 88.276H38.345C17.167 88.276 0 105.444 0 126.62v73.472h512v-73.47c0-21.178-17.167-38.346-38.345-38.346z" fill="#73af00"/><path d="M0 385.38c0 21.177 17.167 38.345 38.345 38.345h435.31c21.177 0 38.345-17.167 38.345-38.345v-73.47H0z" fill="#ff4b55"/><g fill="#f5f5f5"><path d="M0 200.09h512V311.9H0zm1.388-5.914h.078c.767 0 1.39-.62 1.39-1.388v-3.008c0-.767.62-1.388 1.388-1.388h5.827c.77 0 1.39.62 1.39 1.388v3.008c0 .767.62 1.388 1.39 1.388h11.5c.77 0 1.39-.62 1.39-1.388v-5.94c0-.766-.62-1.387-1.39-1.387h-5.79c-.76 0-1.38.63-1.38 1.39v.15c0 .77.62 1.39 1.39 1.39h2.93c.767 0 1.39.62 1.39 1.39v.15c0 .77-.622 1.39-1.39 1.39H15.71c-.767 0-1.39-.62-1.39-1.39v-3.08c0-.763-.62-1.39-1.388-1.39H1.38c-.767 0-1.388.62-1.388 1.39v5.94c0 .768.62 1.39 1.387 1.39zm5.75 0h.078c.767 0 1.388-.62 1.388-1.388v-.08c0-.766-.62-1.387-1.388-1.387h-.08c-.766 0-1.388.63-1.388 1.39v.08c0 .77.622 1.39 1.39 1.39zm-5.75-11.645H35.81c.768 0 1.39-.62 1.39-1.38V181c0-.766-.62-1.387-1.39-1.387H1.39c-.767 0-1.388.62-1.388 1.388v.155c0 .767.62 1.388 1.388 1.388zm34.422 11.65h-5.79c-.764 0-1.386-.62-1.386-1.382v-5.94c0-.767.62-1.388 1.39-1.388h8.646c.766 0 1.39-.62 1.39-1.388V181c0-.77.62-1.39 1.386-1.39h.077c.767 0 1.39.62 1.39 1.39v8.94c0 .765.62 1.386 1.387 1.386h.078c.767 0 1.388-.62 1.388-1.388v-8.94c0-.767.62-1.388 1.388-1.388h.077c.77 0 1.39.62 1.39 1.387v8.94c0 .767.62 1.388 1.39 1.388h.12c.77 0 1.39-.62 1.39-1.388v-8.94c0-.767.62-1.388 1.39-1.388h.042c.767 0 1.388.62 1.388 1.382v11.797c0 .77-.62 1.39-1.387 1.39h-11.5c-.766 0-1.387-.62-1.387-1.39v-3.01c0-.765-.623-1.386-1.39-1.386h-5.79c-.77 0-1.39.62-1.39 1.388v.153c0 .766.62 1.387 1.39 1.387h2.93c.77 0 1.39.623 1.39 1.39v.08c0 .764-.623 1.387-1.39 1.387zm22.81 0h.114c.767 0 1.39-.62 1.39-1.39v-3c0-.767.62-1.388 1.387-1.388h5.76c.77 0 1.39.62 1.39 1.388v3.01c0 .766.62 1.387 1.39 1.387h11.5c.766 0 1.387-.62 1.387-1.387v-5.94c0-.767-.62-1.388-1.387-1.388h-5.79c-.768 0-1.39.62-1.39 1.39v.15c0 .765.62 1.386 1.39 1.386h2.934c.767 0 1.388.62 1.388 1.388v.15c0 .77-.62 1.39-1.387 1.39H72.9c-.767 0-1.388-.62-1.388-1.39v-3.08c0-.766-.62-1.387-1.388-1.387H58.618c-.767 0-1.388.62-1.388 1.387v5.94c0 .766.622 1.39 1.388 1.39zm5.712 0h.08c.767 0 1.388-.62 1.388-1.39v-.08c0-.76-.62-1.38-1.388-1.38h-.08c-.766 0-1.387.624-1.387 1.39v.08c0 .764.62 1.387 1.388 1.387zm-5.71-11.64H93.01c.766 0 1.39-.62 1.39-1.387V181c0-.765-.623-1.386-1.39-1.386H58.62c-.767 0-1.388.62-1.388 1.39v.152c0 .768.622 1.39 1.388 1.39zm34.388 11.64h-5.83c-.768 0-1.39-.62-1.39-1.388v-5.94c0-.767.62-1.388 1.39-1.388h8.647c.767 0 1.388-.62 1.388-1.386v-3.08c0-.768.62-1.39 1.39-1.39h.114c.76 0 1.38.622 1.38 1.39v8.94c0 .766.62 1.387 1.39 1.387h.112c.767 0 1.39-.62 1.39-1.387v-8.94c0-.767.62-1.388 1.39-1.388h.04c.767 0 1.39.62 1.39 1.388v8.94c0 .767.62 1.388 1.387 1.388h.115c.766 0 1.39-.62 1.39-1.387V181c0-.768.62-1.39 1.386-1.39h.078c.766 0 1.39.62 1.39 1.388v11.797c0 .766-.62 1.387-1.39 1.387H98.6c-.766 0-1.39-.62-1.39-1.387v-3.01c0-.767-.62-1.388-1.386-1.388H90.07c-.766 0-1.387.62-1.387 1.388v.152c0 .767.62 1.388 1.388 1.388h2.94c.767 0 1.39.622 1.39 1.388v.08c-.004.766-.625 1.39-1.392 1.39zm22.806 0h.077c.77 0 1.39-.62 1.39-1.388v-3.01c0-.766.62-1.387 1.388-1.387h5.8c.766 0 1.387.62 1.387 1.388v3.01c0 .766.623 1.387 1.39 1.387h11.538c.768 0 1.39-.62 1.39-1.388v-5.94c0-.767-.62-1.388-1.39-1.388h-5.79c-.766 0-1.39.623-1.39 1.39v.15c0 .767.623 1.388 1.39 1.388h2.936c.765 0 1.387.62 1.387 1.388v.15c0 .768-.62 1.39-1.39 1.39H130.1c-.767 0-1.388-.622-1.388-1.39v-3.08c0-.767-.62-1.388-1.39-1.388h-11.5c-.767 0-1.39.62-1.39 1.388v5.94c0 .765.62 1.388 1.39 1.388zm5.712 0h.078c.767 0 1.388-.62 1.388-1.388v-.08c0-.767-.62-1.388-1.388-1.388h-.078c-.767 0-1.388.624-1.388 1.39v.08c0 .764.62 1.387 1.388 1.387zm-5.712-11.645h34.424c.767 0 1.39-.62 1.39-1.386v-.16c0-.765-.622-1.386-1.39-1.386h-34.424c-.767 0-1.388.62-1.388 1.387v.154c-.002.768.62 1.39 1.388 1.39zm34.424 11.647h-5.827c-.765 0-1.387-.62-1.387-1.39v-5.94c0-.766.62-1.387 1.39-1.387h8.645c.77 0 1.39-.62 1.39-1.387v-3.08c0-.768.62-1.39 1.39-1.39h.08c.77 0 1.39.622 1.39 1.39v8.94c0 .766.625 1.387 1.39 1.387h.117c.768 0 1.39-.62 1.39-1.388v-8.94c0-.767.62-1.388 1.388-1.388h.117c.767 0 1.388.62 1.388 1.38v8.94c0 .768.623 1.39 1.39 1.39h.04c.768 0 1.39-.62 1.39-1.388v-8.94c0-.767.62-1.388 1.388-1.388h.078c.77 0 1.39.62 1.39 1.387v11.798c0 .766-.622 1.39-1.39 1.39h-11.54c-.765 0-1.387-.62-1.387-1.39v-3.01c0-.767-.62-1.388-1.39-1.388h-5.79c-.767 0-1.39.62-1.39 1.388v.154c0 .767.62 1.388 1.39 1.388h2.973c.77 0 1.39.623 1.39 1.39v.08c0 .764-.62 1.387-1.39 1.387zm22.77 0h.076c.767 0 1.388-.62 1.388-1.39v-3.008c0-.767.622-1.388 1.388-1.388h5.79c.767 0 1.39.62 1.39 1.388v3.008c0 .767.62 1.388 1.388 1.388h11.54c.767 0 1.388-.62 1.388-1.388v-5.94c0-.766-.62-1.387-1.388-1.387h-5.827c-.765 0-1.387.623-1.387 1.39v.15c0 .767.622 1.388 1.39 1.388h2.934c.767 0 1.388.62 1.388 1.39v.15c0 .767-.62 1.39-1.388 1.39h-5.79c-.767 0-1.388-.623-1.388-1.39v-3.08c0-.768-.623-1.39-1.39-1.39h-11.5c-.77 0-1.39.62-1.39 1.39v5.94c0 .764.622 1.387 1.39 1.387zm5.712 0h.077c.76 0 1.38-.62 1.38-1.39v-.08c0-.766-.62-1.387-1.388-1.387h-.078c-.768 0-1.39.624-1.39 1.39v.08c0 .764.622 1.387 1.39 1.387zm-5.713-11.647h34.38c.766 0 1.39-.62 1.39-1.386v-.16c0-.765-.62-1.386-1.39-1.386h-34.38c-.77 0-1.39.62-1.39 1.387v.154c0 .767.622 1.388 1.39 1.388zm34.38 11.647h-5.827c-.768 0-1.39-.62-1.39-1.388v-5.94c0-.767.62-1.388 1.39-1.388h8.72c.767 0 1.39-.62 1.39-1.387V181c0-.77.62-1.39 1.387-1.39h.08c.767 0 1.39.62 1.39 1.39v8.94c0 .765.62 1.386 1.39 1.386h.04c.767 0 1.39-.62 1.39-1.388v-8.94c0-.767.62-1.388 1.387-1.388h.113c.77 0 1.39.62 1.39 1.388v8.94c0 .767.62 1.388 1.39 1.388h.08c.77 0 1.39-.62 1.39-1.388v-8.94c0-.767.62-1.388 1.39-1.388h.075c.767 0 1.388.62 1.388 1.388v11.797c0 .767-.62 1.388-1.388 1.388h-11.5c-.768 0-1.39-.62-1.39-1.387v-3.01c0-.766-.62-1.387-1.388-1.387h-5.827c-.77 0-1.39.62-1.39 1.38v.154c0 .766.62 1.387 1.39 1.387h2.934c.767 0 1.388.624 1.388 1.39v.08c0 .765-.62 1.388-1.385 1.388zm22.805 0h.08c.766 0 1.387-.62 1.387-1.39v-3.007c0-.767.62-1.388 1.387-1.388h5.79c.767 0 1.39.62 1.39 1.388v3.008c0 .768.62 1.39 1.39 1.39h11.54c.764 0 1.385-.62 1.385-1.39v-5.94c0-.765-.62-1.386-1.39-1.386h-5.826c-.767 0-1.39.623-1.39 1.39v.15c0 .767.623 1.388 1.39 1.388h2.97c.767 0 1.39.62 1.39 1.388v.15c0 .768-.624 1.39-1.39 1.39h-5.79c-.767 0-1.388-.622-1.388-1.39v-3.08c0-.767-.62-1.388-1.39-1.388H230.2c-.767 0-1.39.62-1.39 1.388v5.94c0 .765.623 1.388 1.39 1.388zm5.75 0h.042c.766 0 1.39-.62 1.39-1.39v-.08c0-.765-.624-1.386-1.39-1.386h-.043c-.765 0-1.386.624-1.386 1.39v.08c0 .764.62 1.387 1.39 1.387zm-5.75-11.646h34.425c.768 0 1.39-.62 1.39-1.386v-.152c0-.766-.62-1.387-1.388-1.387H230.2c-.767 0-1.39.62-1.39 1.39v.157c.002.768.623 1.39 1.39 1.39zm34.426 11.647h-5.82c-.768 0-1.39-.62-1.39-1.387v-5.94c0-.767.622-1.388 1.39-1.388h8.683c.767 0 1.388-.62 1.388-1.387V181c0-.767.63-1.39 1.39-1.39h.08c.77 0 1.39.623 1.39 1.39v8.94c0 .767.62 1.388 1.39 1.388h.08c.768 0 1.39-.62 1.39-1.388V181c0-.767.622-1.388 1.39-1.388h.076c.767 0 1.388.62 1.388 1.387v8.94c0 .76.623 1.38 1.39 1.38h.076c.765 0 1.386-.62 1.386-1.387V181c0-.768.62-1.39 1.39-1.39h.076c.767 0 1.39.62 1.39 1.388v11.797c0 .767-.623 1.388-1.39 1.388H270.26c-.767 0-1.39-.62-1.39-1.388v-3.01c0-.766-.62-1.387-1.387-1.387h-5.827c-.77 0-1.39.62-1.39 1.388v.153c0 .76.62 1.38 1.39 1.38h2.97c.766 0 1.387.624 1.387 1.39v.08c.005.765-.616 1.388-1.38 1.388zm22.77 0h.08c.766 0 1.388-.62 1.388-1.39v-3.006c0-.767.62-1.388 1.39-1.388h5.79c.766 0 1.39.62 1.39 1.38v3.01c0 .767.623 1.39 1.39 1.39h11.54c.766 0 1.39-.62 1.39-1.39v-5.94c0-.765-.62-1.386-1.39-1.386h-5.79c-.77 0-1.39.623-1.39 1.39v.15c0 .767.62 1.388 1.39 1.388h2.9c.764 0 1.386.62 1.386 1.388v.15c0 .77-.624 1.39-1.39 1.39h-5.755c-.767 0-1.39-.62-1.39-1.39v-3.08c0-.764-.62-1.385-1.387-1.385H287.4c-.767 0-1.39.62-1.39 1.388v5.94c0 .766.622 1.39 1.39 1.39zm5.75 0h.04c.768 0 1.39-.62 1.39-1.39v-.08c0-.764-.622-1.385-1.39-1.385h-.04c-.77 0-1.39.624-1.39 1.39v.08c0 .764.62 1.387 1.39 1.387zm-5.75-11.645h34.425c.77 0 1.39-.62 1.39-1.386V181c0-.767-.622-1.388-1.39-1.388h-34.423c-.767 0-1.39.62-1.39 1.388v.153c0 .768.623 1.39 1.39 1.39zm34.425 11.647h-5.79c-.765 0-1.386-.62-1.386-1.388v-5.94c0-.767.62-1.388 1.39-1.388h8.645c.765 0 1.386-.62 1.386-1.39V181c0-.77.623-1.39 1.39-1.39h.08c.767 0 1.39.62 1.39 1.39v8.94c0 .765.62 1.386 1.39 1.386h.075c.766 0 1.39-.62 1.39-1.388v-8.94c0-.767.62-1.388 1.387-1.388h.08c.766 0 1.388.62 1.388 1.388v8.94c0 .767.62 1.388 1.39 1.388h.08c.767 0 1.388-.62 1.388-1.388v-8.94c0-.767.623-1.388 1.39-1.388h.08c.766 0 1.39.62 1.39 1.388v11.797c0 .767-.624 1.388-1.39 1.388h-11.51c-.768 0-1.39-.62-1.39-1.388v-3.01c0-.766-.62-1.387-1.388-1.387h-5.827c-.767 0-1.39.62-1.39 1.388v.153c0 .76.623 1.38 1.39 1.38h2.97c.767 0 1.388.623 1.388 1.39v.08c.008.764-.615 1.387-1.38 1.387zm22.77 0h.08c.767 0 1.39-.62 1.39-1.39v-3.007c0-.767.62-1.388 1.387-1.388h5.826c.77 0 1.39.62 1.39 1.388v3.008c0 .767.62 1.388 1.39 1.388h11.504c.767 0 1.388-.62 1.388-1.387v-5.94c0-.766-.62-1.387-1.387-1.387h-5.792c-.765 0-1.387.623-1.387 1.39v.15c0 .767.62 1.388 1.39 1.388h2.972c.766 0 1.387.62 1.387 1.388v.15c0 .768-.62 1.39-1.388 1.39h-5.868c-.77 0-1.39-.622-1.39-1.39v-3.08c0-.767-.62-1.388-1.39-1.388h-11.5c-.768 0-1.39.62-1.39 1.388v5.94c0 .765.62 1.388 1.39 1.388zm5.714 0h.116c.766 0 1.387-.62 1.387-1.39v-.08c0-.765-.62-1.386-1.388-1.386h-.12c-.766 0-1.387.62-1.387 1.39v.08c0 .76.62 1.38 1.386 1.38zm-5.713-11.646h34.424c.768 0 1.39-.62 1.39-1.39V181c0-.765-.62-1.386-1.39-1.386h-34.42c-.768 0-1.39.62-1.39 1.39v.152c0 .767.622 1.388 1.39 1.388zm34.426 11.64h-5.79c-.767 0-1.39-.62-1.39-1.388v-5.94c0-.767.622-1.388 1.39-1.388h8.646c.77 0 1.39-.62 1.39-1.388V181c0-.768.62-1.39 1.39-1.39h.08c.766 0 1.39.622 1.39 1.39v8.94c0 .766.62 1.387 1.386 1.387h.075c.768 0 1.39-.62 1.39-1.388V181c0-.768.62-1.39 1.39-1.39h.08c.766 0 1.39.62 1.39 1.39v8.94c0 .766.62 1.387 1.39 1.387h.112c.767 0 1.388-.62 1.388-1.388V181c0-.768.625-1.39 1.39-1.39h.04c.77 0 1.39.62 1.39 1.39v11.796c0 .767-.62 1.388-1.39 1.388h-11.5c-.77 0-1.39-.62-1.39-1.388v-3.01c0-.766-.62-1.387-1.39-1.387h-5.752c-.766 0-1.39.62-1.39 1.38v.153c0 .766.62 1.387 1.39 1.387h2.9c.767 0 1.39.624 1.39 1.39v.08c0 .765-.62 1.388-1.39 1.388zm22.806 0h.043c.767 0 1.39-.62 1.39-1.39v-3.007c0-.768.62-1.39 1.388-1.39h5.794c.767 0 1.39.62 1.39 1.39v3.007c0 .768.62 1.39 1.387 1.39h11.537c.768 0 1.39-.62 1.39-1.388v-5.94c0-.766-.622-1.387-1.39-1.387H419c-.768 0-1.39.623-1.39 1.39v.15c0 .767.622 1.388 1.39 1.388h2.932c.767 0 1.39.62 1.39 1.388v.15c0 .77-.622 1.39-1.39 1.39h-5.825c-.767 0-1.39-.62-1.39-1.39v-3.08c0-.765-.62-1.386-1.388-1.386h-11.51c-.77 0-1.39.62-1.39 1.388v5.94c0 .766.62 1.39 1.39 1.39zm5.713 0h.08c.766 0 1.387-.62 1.387-1.39v-.08c0-.765-.62-1.386-1.39-1.386h-.08c-.763 0-1.384.623-1.384 1.39v.08c0 .763.62 1.386 1.388 1.386zm-5.712-11.646h34.464c.767 0 1.39-.62 1.39-1.387V181c0-.767-.622-1.388-1.39-1.388H401.82c-.767 0-1.39.62-1.39 1.388v.153c0 .767.623 1.388 1.39 1.388zm34.46 11.646h-5.862c-.768 0-1.39-.62-1.39-1.387v-5.94c0-.768.622-1.39 1.39-1.39h8.646c.766 0 1.39-.62 1.39-1.386V181c0-.767.62-1.39 1.387-1.39h.118c.768 0 1.39.623 1.39 1.39v8.94c0 .767.62 1.388 1.39 1.388h.075c.768 0 1.39-.62 1.39-1.388V181c0-.767.62-1.388 1.388-1.388h.044c.765 0 1.387.62 1.387 1.388v8.94c0 .767.62 1.388 1.39 1.388h.116c.766 0 1.387-.62 1.387-1.388V181c0-.767.62-1.388 1.39-1.388h.078c.77 0 1.39.62 1.39 1.388v11.797c0 .767-.62 1.388-1.39 1.388h-11.54c-.765 0-1.39-.62-1.39-1.388v-3.01c0-.766-.62-1.387-1.386-1.387h-5.79c-.767 0-1.39.62-1.39 1.388v.153c0 .77.62 1.39 1.39 1.39h3.008c.768 0 1.39.63 1.39 1.39v.08c.004.77-.62 1.39-1.386 1.39zm22.735 0h.08c.765 0 1.387-.62 1.387-1.39v-3.006c0-.768.623-1.39 1.39-1.39h5.79c.768 0 1.39.62 1.39 1.388v3.007c0 .766.62 1.39 1.39 1.39h11.54c.766 0 1.39-.62 1.39-1.39v-5.94c0-.767-.623-1.388-1.39-1.388h-5.755c-.767 0-1.39.623-1.39 1.39v.15c0 .767.62 1.388 1.39 1.388h2.934c.767 0 1.388.62 1.388 1.39v.15c0 .77-.62 1.39-1.39 1.39h-5.866c-.767 0-1.39-.62-1.39-1.39v-3.08c0-.767-.62-1.388-1.387-1.388h-11.5c-.77 0-1.39.62-1.39 1.388v5.94c0 .768.62 1.39 1.386 1.39zm5.712 0h.08c.766 0 1.388-.62 1.388-1.39v-.08c0-.764-.62-1.385-1.39-1.385h-.078c-.768 0-1.39.625-1.39 1.39v.08c0 .765.62 1.388 1.388 1.388zm-5.713-11.645h34.38c.768 0 1.39-.62 1.39-1.385V181c0-.766-.62-1.387-1.39-1.387H459.01c-.767 0-1.39.62-1.39 1.388v.16c.002.768.624 1.39 1.39 1.39zm34.387 11.648h-5.79c-.764 0-1.386-.62-1.386-1.388v-5.94c0-.767.62-1.388 1.39-1.388h8.72c.767 0 1.39-.62 1.39-1.39V181c0-.767.62-1.39 1.387-1.39h.004c.767 0 1.39.623 1.39 1.39v8.94c0 .767.62 1.388 1.387 1.388h.153c.766 0 1.39-.62 1.39-1.39V181c0-.766.62-1.387 1.387-1.387h.006c.767 0 1.39.62 1.39 1.388v8.94c0 .77.62 1.39 1.388 1.39h.08c.766 0 1.388-.62 1.388-1.39V181c0-.766.623-1.387 1.39-1.387h.15c.768 0 1.39.62 1.39 1.388v11.8c0 .77-.622 1.39-1.39 1.39h-11.5c-.767 0-1.388-.62-1.388-1.39v-3.01c0-.76-.622-1.38-1.39-1.38h-5.863c-.77 0-1.39.62-1.39 1.39v.15c0 .767.62 1.388 1.384 1.388h2.933c.765 0 1.39.623 1.39 1.39v.08c0 .764-.624 1.387-1.39 1.387z"/><path d="M1.388 203.035H24.35c.768 0 1.39-.62 1.39-1.388v-3.08c0-.768-.622-1.39-1.39-1.39H1.39c-.767 0-1.388.623-1.388 1.39v3.08c0 .767.62 1.388 1.388 1.388zm28.634 0H52.95c.766 0 1.387-.62 1.387-1.388v-3.08c0-.768-.62-1.39-1.388-1.39H30.02c-.767 0-1.39.623-1.39 1.39v3.08c0 .767.623 1.388 1.39 1.388zm28.596 0h22.927c.767 0 1.388-.62 1.388-1.388v-3.08c0-.768-.62-1.39-1.388-1.39H58.618c-.767 0-1.388.623-1.388 1.39v3.08c0 .767.622 1.388 1.388 1.388zm28.56 0h23c.768 0 1.39-.62 1.39-1.388v-3.08c0-.768-.622-1.39-1.39-1.39h-23c-.766 0-1.388.623-1.388 1.39v3.08c0 .767.622 1.388 1.39 1.388zm28.636 0h22.963c.767 0 1.39-.62 1.39-1.388v-3.08c0-.768-.622-1.39-1.39-1.39h-22.963c-.767 0-1.388.623-1.388 1.39v3.08c-.002.767.62 1.388 1.388 1.388zm28.596 0h22.963c.767 0 1.388-.62 1.388-1.388v-3.08c0-.768-.62-1.39-1.38-1.39h-22.97c-.764 0-1.39.623-1.39 1.39v3.08c0 .767.627 1.388 1.39 1.388zm28.597 0h22.963c.767 0 1.388-.62 1.388-1.388v-3.08c0-.768-.62-1.39-1.388-1.39h-22.963c-.767 0-1.39.623-1.39 1.39v3.08c.002.767.624 1.388 1.39 1.388zm28.56 0h23c.768 0 1.39-.62 1.39-1.388v-3.08c0-.768-.622-1.39-1.39-1.39h-23c-.766 0-1.387.623-1.387 1.39v3.08c0 .767.62 1.388 1.388 1.388zm28.633 0h22.965c.767 0 1.388-.62 1.388-1.388v-3.08c0-.768-.62-1.39-1.388-1.39H230.2c-.767 0-1.39.623-1.39 1.39v3.08c.002.767.623 1.388 1.39 1.388zm28.597 0h22.965c.767 0 1.39-.62 1.39-1.388v-3.08c0-.768-.623-1.39-1.39-1.39h-22.965c-.767 0-1.388.623-1.388 1.39v3.08c0 .767.62 1.388 1.38 1.388zm28.598 0h22.965c.767 0 1.39-.62 1.39-1.388v-3.08c0-.768-.622-1.39-1.39-1.39h-22.965c-.767 0-1.39.623-1.39 1.39v3.08c0 .767.623 1.388 1.39 1.388zm28.635 0h22.927c.767 0 1.39-.62 1.39-1.388v-3.08c0-.768-.623-1.39-1.39-1.39H316.03c-.767 0-1.388.623-1.388 1.39v3.08c0 .767.62 1.388 1.388 1.388zm28.56 0h22.964c.767 0 1.388-.62 1.388-1.388v-3.08c0-.768-.62-1.39-1.388-1.39H344.59c-.768 0-1.39.623-1.39 1.39v3.08c0 .767.622 1.388 1.39 1.388zm28.634 0h22.925c.76 0 1.38-.62 1.38-1.388v-3.08c0-.768-.62-1.39-1.39-1.39h-22.92c-.768 0-1.39.623-1.39 1.39v3.08c0 .767.622 1.388 1.39 1.388zm28.596 0h22.927c.767 0 1.39-.62 1.39-1.388v-3.08c0-.768-.623-1.39-1.39-1.39H401.82c-.767 0-1.39.623-1.39 1.39v3.08c0 .767.623 1.388 1.39 1.388zm28.597 0h22.965c.767 0 1.39-.62 1.39-1.388v-3.08c0-.768-.622-1.39-1.39-1.39h-22.965c-.767 0-1.39.623-1.39 1.39v3.08c0 .767.623 1.388 1.39 1.388zm28.596 0h22.965c.767 0 1.39-.62 1.39-1.388v-3.08c0-.768-.622-1.39-1.39-1.39h-22.965c-.767 0-1.39.623-1.39 1.39v3.08c.002.767.624 1.388 1.39 1.388zm28.6 0h23c.766 0 1.388-.62 1.388-1.388v-3.08c0-.768-.62-1.39-1.38-1.39h-23c-.766 0-1.39.623-1.39 1.39v3.08c0 .767.62 1.388 1.39 1.388zm22.997 114.79h-.076c-.767 0-1.388.62-1.388 1.39v3.007c0 .767-.622 1.39-1.39 1.39h-5.826c-.767 0-1.39-.623-1.39-1.39v-3.008c0-.767-.62-1.388-1.388-1.388H487.65c-.767 0-1.388.62-1.388 1.388v5.94c0 .766.62 1.388 1.388 1.388h5.79c.767 0 1.388-.622 1.388-1.39v-.15c0-.768-.62-1.39-1.388-1.39h-2.935c-.767 0-1.39-.62-1.39-1.388v-.15c0-.768.623-1.39 1.39-1.39h5.792c.767 0 1.388.622 1.388 1.39v3.08c0 .767.622 1.39 1.39 1.39h11.537c.767 0 1.39-.623 1.39-1.39v-5.94c-.002-.766-.624-1.388-1.39-1.388zm-5.747 0h-.08c-.766 0-1.388.62-1.388 1.39v.08c0 .765.62 1.387 1.39 1.387h.078c.767 0 1.39-.622 1.39-1.39v-.078c0-.766-.623-1.388-1.39-1.388zm5.748 11.645h-34.42c-.76 0-1.39.62-1.39 1.388v.153c0 .77.63 1.39 1.39 1.39h34.43c.77 0 1.39-.62 1.39-1.39v-.15c0-.76-.62-1.39-1.39-1.39zm-34.42-11.644h5.79c.77 0 1.39.62 1.39 1.388v5.94c0 .766-.62 1.388-1.39 1.388h-8.64c-.766 0-1.39.62-1.39 1.388v3.08c0 .768-.62 1.39-1.39 1.39h-.074c-.767 0-1.39-.623-1.39-1.39v-8.94c0-.766-.62-1.387-1.387-1.387h-.08c-.767 0-1.39.62-1.39 1.388v8.94c0 .77-.62 1.39-1.387 1.39h-.076c-.77 0-1.39-.62-1.39-1.39v-8.94c0-.76-.62-1.38-1.39-1.38h-.116c-.766 0-1.39.62-1.39 1.39v8.94c0 .768-.62 1.39-1.387 1.39h-.043c-.77 0-1.39-.623-1.39-1.39v-11.8c0-.767.62-1.39 1.386-1.39h11.502c.765 0 1.39.62 1.39 1.39v3.007c0 .767.62 1.39 1.385 1.39h5.79c.767 0 1.388-.623 1.388-1.39v-.15c0-.768-.62-1.39-1.383-1.39h-2.934c-.766 0-1.39-.62-1.39-1.388v-.08c0-.767.623-1.39 1.39-1.39zm-22.8 0h-.115c-.767 0-1.39.62-1.39 1.388v3.008c0 .767-.622 1.39-1.39 1.39h-5.753c-.767 0-1.39-.623-1.39-1.39v-3.008c0-.767-.62-1.388-1.387-1.388H430.46c-.767 0-1.39.62-1.39 1.388v5.94c0 .766.623 1.388 1.39 1.388h5.79c.767 0 1.39-.622 1.39-1.39v-.15c0-.768-.623-1.39-1.39-1.39h-2.935c-.766 0-1.387-.62-1.387-1.388v-.15c0-.768.62-1.39 1.388-1.39h5.795c.767 0 1.388.622 1.388 1.39v3.08c0 .767.623 1.39 1.39 1.39h11.5c.77 0 1.39-.623 1.39-1.39v-5.94c0-.766-.623-1.388-1.39-1.388zm-5.713 0h-.08c-.765 0-1.39.62-1.39 1.388v.08c0 .766.625 1.388 1.39 1.388h.08c.765 0 1.387-.622 1.387-1.39v-.078c0-.766-.622-1.388-1.39-1.388zm5.71 11.644H419c-.768 0-1.39.62-1.39 1.388v.153c0 .77.622 1.39 1.39 1.39h34.386c.77 0 1.39-.62 1.39-1.39v-.15c0-.76-.622-1.39-1.39-1.39zM419 317.826h5.826c.77 0 1.39.62 1.39 1.388v5.94c0 .766-.62 1.388-1.39 1.388h-8.645c-.765 0-1.39.62-1.39 1.388v3.08c0 .768-.62 1.39-1.39 1.39h-.11c-.765 0-1.387-.623-1.387-1.39v-8.94c0-.766-.622-1.387-1.39-1.387h-.114c-.77 0-1.39.62-1.39 1.388v8.94c0 .77-.62 1.39-1.39 1.39h-.04c-.767 0-1.39-.62-1.39-1.39v-8.94c0-.76-.62-1.38-1.387-1.38h-.118c-.77 0-1.39.62-1.39 1.39v8.94c0 .768-.62 1.39-1.39 1.39h-.076c-.768 0-1.39-.623-1.39-1.39v-11.8c0-.767.62-1.39 1.388-1.39H413.4c.766 0 1.39.62 1.39 1.39v3.007c0 .767.62 1.39 1.387 1.39h5.754c.77 0 1.39-.623 1.39-1.39v-.15c0-.768-.62-1.39-1.39-1.39H419c-.767 0-1.39-.62-1.39-1.388v-.08c0-.767.623-1.39 1.39-1.39zm-22.808 0h-.077c-.77 0-1.39.62-1.39 1.388v3.008c0 .767-.62 1.39-1.39 1.39h-5.79c-.77 0-1.39-.623-1.39-1.39v-3.008c0-.767-.62-1.388-1.39-1.388h-11.54c-.767 0-1.39.62-1.39 1.388v5.94c0 .766.622 1.388 1.39 1.388h5.79c.767 0 1.39-.622 1.39-1.39v-.15c0-.768-.622-1.39-1.39-1.39h-2.935c-.768 0-1.39-.62-1.39-1.388v-.15c0-.768.622-1.39 1.39-1.39h5.826c.768 0 1.39.622 1.39 1.39v3.08c0 .767.62 1.39 1.388 1.39h11.505c.765 0 1.39-.623 1.39-1.39v-5.94c0-.766-.62-1.388-1.39-1.388zm-5.712 0h-.077c-.766 0-1.39.62-1.39 1.388v.08c0 .766.624 1.388 1.39 1.388h.078c.77 0 1.39-.622 1.39-1.39v-.078c0-.766-.62-1.388-1.39-1.388zm5.712 11.644h-34.426c-.767 0-1.39.62-1.39 1.388v.153c0 .77.622 1.39 1.39 1.39h34.424c.766 0 1.39-.62 1.39-1.39v-.15c0-.76-.624-1.39-1.39-1.39zm-34.426-11.644h5.827c.766 0 1.388.62 1.388 1.388v5.94c0 .766-.62 1.388-1.39 1.388h-8.642c-.765 0-1.386.62-1.386 1.388v3.08c0 .768-.62 1.39-1.39 1.39h-.077c-.77 0-1.39-.623-1.39-1.39v-8.94c0-.766-.623-1.387-1.39-1.387h-.115c-.767 0-1.39.62-1.39 1.388v8.94c0 .77-.62 1.39-1.387 1.39h-.116c-.767 0-1.39-.62-1.39-1.39v-8.94c0-.76-.62-1.38-1.39-1.38h-.04c-.766 0-1.39.62-1.39 1.39v8.94c0 .768-.62 1.39-1.39 1.39h-.074c-.768 0-1.39-.623-1.39-1.39v-11.8c0-.767.62-1.39 1.39-1.39h11.54c.766 0 1.39.62 1.39 1.39v3.007c0 .767.62 1.39 1.386 1.39h5.79c.766 0 1.387-.623 1.387-1.39v-.15c0-.768-.62-1.39-1.386-1.39h-2.972c-.766 0-1.39-.62-1.39-1.388v-.08c0-.767.624-1.39 1.39-1.39zm-22.77 0h-.076c-.768 0-1.39.62-1.39 1.388v3.008c0 .767-.62 1.39-1.388 1.39h-5.79c-.77 0-1.39-.623-1.39-1.39v-3.008c0-.767-.62-1.388-1.39-1.388h-11.54c-.767 0-1.388.62-1.388 1.388v5.94c0 .766.62 1.388 1.388 1.388h5.828c.766 0 1.388-.622 1.388-1.39v-.15c0-.768-.622-1.39-1.39-1.39h-2.934c-.767 0-1.388-.62-1.388-1.388v-.15c0-.768.62-1.39 1.388-1.39h5.79c.767 0 1.388.622 1.388 1.39v3.08c0 .767.622 1.39 1.39 1.39h11.5c.768 0 1.39-.623 1.39-1.39v-5.94c0-.766-.623-1.388-1.39-1.388zm-5.712 0h-.076c-.767 0-1.388.62-1.388 1.388v.08c0 .766.62 1.388 1.387 1.388h.077c.768 0 1.39-.622 1.39-1.39v-.078c0-.766-.622-1.388-1.39-1.388zm5.714 11.644H304.61c-.768 0-1.39.62-1.39 1.388v.153c0 .77.62 1.39 1.39 1.39h34.387c.767 0 1.39-.62 1.39-1.39v-.15c-.002-.76-.624-1.39-1.39-1.39zm-34.388-11.644h5.826c.767 0 1.39.62 1.39 1.388v5.94c0 .766-.623 1.388-1.39 1.388h-8.72c-.768 0-1.39.62-1.39 1.388v3.08c0 .768-.62 1.39-1.388 1.39h-.077c-.765 0-1.39-.623-1.39-1.39v-8.94c0-.766-.62-1.387-1.39-1.387h-.04c-.768 0-1.39.62-1.39 1.388v8.94c0 .77-.62 1.39-1.39 1.39h-.117c-.764 0-1.385-.62-1.385-1.39v-8.94c0-.76-.622-1.38-1.39-1.38h-.078c-.77 0-1.39.62-1.39 1.39v8.94c0 .768-.62 1.39-1.39 1.39h-.077c-.766 0-1.39-.623-1.39-1.39v-11.8c0-.767.624-1.39 1.39-1.39h11.503c.766 0 1.387.62 1.387 1.39v3.007c0 .767.623 1.39 1.39 1.39h5.827c.767 0 1.39-.623 1.39-1.39v-.15c0-.768-.622-1.39-1.39-1.39h-2.935c-.768 0-1.39-.62-1.39-1.388v-.08c0-.767.62-1.39 1.39-1.39zm-22.806 0h-.08c-.765 0-1.386.62-1.386 1.388v3.008c0 .767-.62 1.39-1.388 1.39h-5.79c-.767 0-1.388-.623-1.388-1.39v-3.008c0-.767-.622-1.388-1.39-1.388h-11.54c-.766 0-1.387.62-1.387 1.388v5.94c0 .766.62 1.388 1.39 1.388h5.826c.77 0 1.39-.622 1.39-1.39v-.15c0-.768-.62-1.39-1.39-1.39h-2.97c-.765 0-1.39-.62-1.39-1.388v-.15c0-.768.626-1.39 1.39-1.39h5.79c.77 0 1.39.622 1.39 1.39v3.08c0 .767.62 1.39 1.39 1.39h11.54c.767 0 1.39-.623 1.39-1.39v-5.94c0-.766-.62-1.388-1.39-1.388zm-5.75 0h-.04c-.768 0-1.39.62-1.39 1.388v.08c0 .766.62 1.388 1.39 1.388h.04c.768 0 1.39-.622 1.39-1.39v-.078c0-.766-.62-1.388-1.39-1.388zm5.75 11.644H247.38c-.766 0-1.387.62-1.387 1.388v.153c0 .77.62 1.39 1.387 1.39h34.42c.767 0 1.39-.62 1.39-1.39v-.15c-.002-.76-.623-1.39-1.39-1.39zm-34.425-11.644h5.823c.77 0 1.39.62 1.39 1.388v5.94c0 .766-.62 1.388-1.39 1.388h-8.68c-.768 0-1.39.62-1.39 1.388v3.08c0 .768-.62 1.39-1.39 1.39h-.076c-.768 0-1.39-.623-1.39-1.39v-8.94c0-.766-.62-1.387-1.388-1.387h-.08c-.768 0-1.39.62-1.39 1.388v8.94c0 .77-.623 1.39-1.39 1.39h-.077c-.767 0-1.388-.62-1.388-1.39v-8.94c0-.76-.623-1.38-1.39-1.38h-.077c-.77 0-1.39.62-1.39 1.39v8.94c0 .768-.62 1.39-1.39 1.39h-.08c-.766 0-1.388-.623-1.388-1.39v-11.8c0-.767.62-1.39 1.39-1.39h11.5c.768 0 1.39.62 1.39 1.39v3.007c0 .767.62 1.39 1.388 1.39h5.83c.764 0 1.386-.623 1.386-1.39v-.15c0-.768-.623-1.39-1.39-1.39h-2.97c-.767 0-1.388-.62-1.388-1.388v-.08c-.004-.767.617-1.39 1.384-1.39zm-22.77 0h-.08c-.77 0-1.39.62-1.39 1.388v3.008c0 .767-.62 1.39-1.39 1.39h-5.79c-.77 0-1.39-.623-1.39-1.39v-3.008c0-.767-.62-1.388-1.39-1.388h-11.54c-.767 0-1.388.62-1.388 1.388v5.94c0 .766.62 1.388 1.388 1.388h5.796c.766 0 1.387-.622 1.387-1.39v-.15c0-.768-.62-1.39-1.387-1.39h-2.9c-.766 0-1.388-.62-1.388-1.388v-.15c0-.768.62-1.39 1.39-1.39h5.752c.767 0 1.39.622 1.39 1.39v3.08c0 .767.62 1.39 1.387 1.39h11.54c.767 0 1.39-.623 1.39-1.39v-5.94c-.003-.766-.625-1.388-1.39-1.388zm-5.75 0h-.04c-.77 0-1.39.62-1.39 1.388v.08c0 .766.62 1.388 1.39 1.388h.04c.77 0 1.39-.622 1.39-1.39v-.078c0-.766-.62-1.388-1.39-1.388zm5.75 11.644h-34.43c-.77 0-1.39.62-1.39 1.388v.153c0 .77.62 1.39 1.385 1.39H224.6c.768 0 1.39-.62 1.39-1.39v-.15c0-.76-.62-1.39-1.39-1.39zm-34.428-11.644h5.79c.768 0 1.39.62 1.39 1.388v5.94c0 .766-.62 1.388-1.39 1.388h-8.645c-.768 0-1.39.62-1.39 1.388v3.08c0 .768-.62 1.39-1.39 1.39h-.08c-.767 0-1.39-.623-1.39-1.39v-8.94c0-.766-.62-1.387-1.386-1.387h-.077c-.768 0-1.39.62-1.39 1.388v8.94c0 .77-.62 1.39-1.39 1.39h-.077c-.77 0-1.39-.62-1.39-1.39v-8.94c0-.76-.62-1.38-1.39-1.38h-.074c-.766 0-1.387.62-1.387 1.39v8.94c0 .768-.623 1.39-1.39 1.39h-.08c-.767 0-1.39-.623-1.39-1.39v-11.8c0-.767.623-1.39 1.39-1.39h11.505c.767 0 1.39.62 1.39 1.39v3.007c0 .767.62 1.39 1.387 1.39h5.828c.766 0 1.39-.623 1.39-1.39v-.15c0-.768-.623-1.39-1.39-1.39h-2.97c-.768 0-1.39-.62-1.39-1.388v-.08c-.006-.767.617-1.39 1.383-1.39zm-22.77 0h-.077c-.767 0-1.39.62-1.39 1.388v3.008c0 .767-.62 1.39-1.387 1.39h-5.826c-.77 0-1.39-.623-1.39-1.39v-3.008c0-.767-.62-1.388-1.39-1.388H144.45c-.767 0-1.39.62-1.39 1.388v5.94c0 .766.622 1.388 1.39 1.388h5.792c.766 0 1.388-.622 1.388-1.39v-.15c0-.768-.62-1.39-1.39-1.39h-2.972c-.767 0-1.39-.62-1.39-1.388v-.15c0-.768.622-1.39 1.39-1.39h5.865c.767 0 1.39.622 1.39 1.39v3.08c0 .767.62 1.39 1.387 1.39h11.502c.766 0 1.39-.623 1.39-1.39v-5.94c0-.766-.623-1.388-1.39-1.388zm-5.71 0h-.117c-.767 0-1.388.62-1.388 1.388v.08c0 .766.62 1.388 1.387 1.388h.116c.77 0 1.39-.622 1.39-1.39v-.078c0-.766-.62-1.388-1.387-1.388zm5.712 11.644h-34.42c-.767 0-1.39.62-1.39 1.388v.153c0 .77.622 1.39 1.39 1.39h34.424c.77 0 1.39-.62 1.39-1.39v-.15c0-.76-.62-1.39-1.39-1.39zm-34.423-11.644h5.79c.77 0 1.39.62 1.39 1.388v5.94c0 .766-.62 1.388-1.39 1.388h-8.644c-.767 0-1.39.62-1.39 1.388v3.08c0 .768-.62 1.39-1.387 1.39h-.08c-.766 0-1.388-.623-1.388-1.39v-8.94c0-.766-.62-1.387-1.39-1.387h-.077c-.768 0-1.39.62-1.39 1.388v8.94c0 .77-.62 1.39-1.39 1.39h-.077c-.77 0-1.39-.62-1.39-1.39v-8.94c0-.76-.62-1.38-1.39-1.38h-.116c-.77 0-1.39.62-1.39 1.39v8.94c0 .768-.62 1.39-1.388 1.39h-.04c-.767 0-1.39-.623-1.39-1.39v-11.8c0-.767.622-1.39 1.39-1.39h11.502c.766 0 1.39.62 1.39 1.39v3.007c0 .767.62 1.39 1.386 1.39h5.756c.764 0 1.39-.623 1.39-1.39v-.15c0-.768-.625-1.39-1.39-1.39h-2.9c-.77 0-1.39-.62-1.39-1.388v-.08c0-.767.62-1.39 1.386-1.39zm-22.804 0h-.04c-.768 0-1.39.62-1.39 1.388v3.008c0 .767-.62 1.39-1.388 1.39h-5.79c-.77 0-1.39-.623-1.39-1.39v-3.008c0-.767-.62-1.388-1.388-1.388H87.26c-.767 0-1.388.62-1.388 1.388v5.94c0 .766.62 1.388 1.387 1.388h5.75c.76 0 1.39-.622 1.39-1.39v-.15c0-.768-.628-1.39-1.39-1.39h-2.94c-.767 0-1.388-.62-1.388-1.388v-.15c0-.768.62-1.39 1.387-1.39h5.83c.766 0 1.39.622 1.39 1.39v3.08c0 .767.62 1.39 1.386 1.39h11.505c.768 0 1.39-.623 1.39-1.39v-5.94c0-.766-.624-1.388-1.39-1.388zm-5.71 0h-.08c-.767 0-1.39.62-1.39 1.388v.08c0 .766.62 1.388 1.39 1.388h.08c.766 0 1.387-.622 1.387-1.39v-.078c0-.766-.62-1.388-1.387-1.388zm5.71 11.644H75.72c-.768 0-1.39.62-1.39 1.388v.153c0 .77.622 1.39 1.39 1.39h34.46c.768 0 1.39-.62 1.39-1.39v-.15c0-.76-.623-1.39-1.39-1.39zm-34.46-11.644h5.865c.767 0 1.39.62 1.39 1.388v5.94c0 .766-.622 1.388-1.39 1.388h-8.65c-.766 0-1.387.62-1.387 1.388v3.08c0 .768-.62 1.39-1.39 1.39h-.115c-.768 0-1.39-.623-1.39-1.39v-8.94c0-.766-.62-1.387-1.39-1.387h-.08c-.765 0-1.39.62-1.39 1.388v8.94c0 .77-.62 1.39-1.385 1.39h-.043c-.765 0-1.39-.62-1.39-1.39v-8.94c0-.76-.62-1.38-1.385-1.38h-.115c-.767 0-1.39.62-1.39 1.39v8.94c0 .768-.62 1.39-1.387 1.39h-.077c-.768 0-1.39-.623-1.39-1.39v-11.8c0-.767.62-1.39 1.388-1.39h11.54c.767 0 1.39.62 1.39 1.39v3.007c0 .767.62 1.39 1.387 1.39h5.79c.767 0 1.388-.623 1.388-1.39v-.15c0-.768-.62-1.39-1.39-1.39h-3.01c-.768 0-1.39-.62-1.39-1.388v-.08c0-.767.62-1.39 1.39-1.39zm-22.733 0h-.08c-.765 0-1.386.62-1.386 1.388v3.008c0 .767-.624 1.39-1.39 1.39h-5.79c-.77 0-1.39-.623-1.39-1.39v-3.008c0-.767-.62-1.388-1.39-1.388H30.03c-.77 0-1.39.62-1.39 1.388v5.94c0 .766.62 1.388 1.39 1.388h5.752c.767 0 1.388-.622 1.388-1.39v-.15c0-.768-.62-1.39-1.388-1.39H32.84c-.766 0-1.388-.62-1.388-1.388v-.15c0-.768.622-1.39 1.39-1.39h5.864c.767 0 1.39.622 1.39 1.39v3.08c0 .767.62 1.39 1.387 1.39h11.502c.767 0 1.388-.623 1.388-1.39v-5.94c.002-.766-.62-1.388-1.387-1.388zm-5.71 0h-.08c-.767 0-1.388.62-1.388 1.388v.08c0 .766.62 1.388 1.39 1.388h.08c.765 0 1.386-.622 1.386-1.39v-.078c0-.766-.62-1.388-1.386-1.388zm5.71 11.644H18.6c-.768 0-1.39.62-1.39 1.388v.153c0 .77.622 1.39 1.39 1.39h34.386c.767 0 1.388-.62 1.388-1.39v-.15c0-.76-.62-1.39-1.388-1.39zM18.6 317.826h5.79c.766 0 1.388.62 1.388 1.388v5.94c0 .766-.62 1.388-1.39 1.388H15.67c-.767 0-1.39.62-1.39 1.388v3.08c0 .768-.62 1.39-1.388 1.39h-.004c-.767 0-1.39-.623-1.39-1.39v-8.94c0-.766-.62-1.387-1.388-1.387h-.154c-.767 0-1.39.62-1.39 1.388v8.94c0 .77-.62 1.39-1.388 1.39h-.003c-.767 0-1.388-.62-1.388-1.39v-8.94c0-.76-.622-1.38-1.39-1.38h-.08c-.767 0-1.39.62-1.39 1.39v8.94c0 .768-.62 1.39-1.387 1.39h-.152C.62 332.4 0 331.778 0 331.01v-11.796c0-.767.62-1.388 1.388-1.388H12.89c.767 0 1.39.62 1.39 1.388v3.008c0 .767.62 1.39 1.388 1.39h5.864c.767 0 1.388-.623 1.388-1.39v-.15c0-.768-.62-1.39-1.388-1.39H18.6c-.767 0-1.39-.62-1.39-1.388v-.08c0-.766.622-1.388 1.39-1.388zm492.01-8.86h-22.96c-.767 0-1.388.622-1.388 1.39v3.08c0 .767.62 1.388 1.388 1.388h22.963c.768 0 1.39-.62 1.39-1.388v-3.08c0-.768-.622-1.39-1.39-1.39zm-28.632 0H459.05c-.766 0-1.387.622-1.387 1.39v3.08c0 .767.62 1.388 1.388 1.388h22.93c.77 0 1.39-.62 1.39-1.388v-3.08c0-.768-.62-1.39-1.39-1.39zm-28.596 0h-22.927c-.767 0-1.39.622-1.39 1.39v3.08c0 .767.623 1.388 1.39 1.388h22.927c.767 0 1.39-.62 1.39-1.388v-3.08c-.002-.768-.624-1.39-1.39-1.39zm-28.56 0h-23c-.768 0-1.39.622-1.39 1.39v3.08c0 .767.623 1.388 1.39 1.388h23c.766 0 1.388-.62 1.388-1.388v-3.08c0-.768-.622-1.39-1.39-1.39zm-28.636 0h-22.963c-.767 0-1.39.622-1.39 1.39v3.08c0 .767.622 1.388 1.39 1.388h22.963c.767 0 1.39-.62 1.39-1.388v-3.08c0-.768-.623-1.39-1.39-1.39zm-28.596 0h-22.963c-.767 0-1.388.622-1.388 1.39v3.08c0 .767.62 1.388 1.38 1.388h22.96c.767 0 1.39-.62 1.39-1.388v-3.08c0-.768-.624-1.39-1.39-1.39zm-28.597 0H316.03c-.767 0-1.388.622-1.388 1.39v3.08c0 .767.62 1.388 1.388 1.388h22.963c.767 0 1.39-.62 1.39-1.388v-3.08c-.002-.768-.624-1.39-1.39-1.39zm-28.56 0h-23c-.768 0-1.39.622-1.39 1.39v3.08c0 .767.622 1.388 1.39 1.388h23c.766 0 1.388-.62 1.388-1.388v-3.08c0-.768-.62-1.39-1.38-1.39zm-28.633 0h-22.965c-.767 0-1.388.622-1.388 1.39v3.08c0 .767.62 1.388 1.388 1.388H281.8c.767 0 1.39-.62 1.39-1.388v-3.08c-.002-.768-.623-1.39-1.39-1.39zm-28.597 0h-22.965c-.767 0-1.39.622-1.39 1.39v3.08c0 .767.622 1.388 1.39 1.388h22.965c.767 0 1.388-.62 1.388-1.388v-3.08c0-.768-.62-1.39-1.38-1.39zm-28.598 0H201.64c-.767 0-1.388.622-1.388 1.39v3.08c0 .767.62 1.388 1.388 1.388h22.965c.767 0 1.39-.62 1.39-1.388v-3.08c0-.768-.623-1.39-1.39-1.39zm-28.635 0h-22.927c-.767 0-1.39.622-1.39 1.39v3.08c0 .767.623 1.388 1.39 1.388h22.927c.767 0 1.388-.62 1.388-1.388v-3.08c0-.768-.62-1.39-1.388-1.39zm-28.56 0h-22.964c-.767 0-1.39.622-1.39 1.39v3.08c0 .767.622 1.388 1.39 1.388h22.965c.77 0 1.39-.62 1.39-1.388v-3.08c0-.768-.62-1.39-1.39-1.39zm-28.634 0H115.85c-.766 0-1.388.622-1.388 1.39v3.08c0 .767.62 1.388 1.39 1.388h22.924c.767 0 1.39-.62 1.39-1.388v-3.08c-.002-.768-.623-1.39-1.39-1.39zm-28.596 0H87.254c-.767 0-1.388.622-1.388 1.39v3.08c0 .767.62 1.388 1.388 1.388h22.927c.77 0 1.39-.62 1.39-1.388v-3.08c0-.768-.62-1.39-1.39-1.39zm-28.597 0H58.618c-.767 0-1.388.622-1.388 1.39v3.08c0 .767.62 1.388 1.388 1.388h22.965c.767 0 1.39-.62 1.39-1.388v-3.08c0-.768-.623-1.39-1.39-1.39zm-28.597 0H30.022c-.767 0-1.39.622-1.39 1.39v3.08c0 .767.622 1.388 1.39 1.388h22.965c.767 0 1.388-.62 1.388-1.388v-3.08c0-.768-.622-1.39-1.39-1.39zm-28.598 0h-23c-.767 0-1.388.622-1.388 1.39v3.08c0 .767.62 1.388 1.388 1.388h23c.767 0 1.39-.62 1.39-1.388v-3.08c0-.768-.622-1.39-1.39-1.39z"/></g><path d="M248.698 214.275c2.62.698 5.414-.07 7.334-2.026 2.898 2.93 7.647 3 10.65.14 1.955-1.89 2.758-4.75 2.06-7.34-2.55 4.12-7.926 5.45-12.047 2.86-.21-.14-.49-.28-.663-.42-3.875 2.863-9.357 2.095-12.29-1.745-.107-.21-.315-.49-.455-.698-1.048 4.05 1.396 8.24 5.41 9.217zm16.268 81.58c9.386-5.153 17.22-13.272 21.514-23.966 7.314-18.33 2.708-39.02-11.283-52.44-.48-.47-1.212.15-.863.72 13.8 22.5 8.363 52.07-12.99 68.28l1.02-65.37c.015-.89-.38-1.73-1.07-2.29l-3.473-2.81c-1.06-.86-2.58-.857-3.64.01l-3.42 2.795c-.68.56-1.07 1.4-1.06 2.28l1 65.414c-21.356-16.195-26.804-45.794-13.026-68.31.348-.57-.383-1.187-.863-.725-13.963 13.42-18.6 34.11-11.285 52.44 4.296 10.69 12.128 18.81 21.517 23.963-5.973 2.045-12.253 3.132-18.603 2.95-.67-.02-.806.925-.163 1.12 8.07 2.45 16.367 2.616 24.17.867l3.063 5.942c.21.41.8.41 1.01 0l3.085-5.94c7.803 1.745 16.104 1.574 24.178-.875.644-.193.51-1.137-.16-1.12-6.36.186-12.654-.9-18.64-2.947z" fill="#ff4b55"/><path d="M303.17 235.086c-4.803-8.975-12.78-15.778-22.28-19.11-.594-.21-1.058.576-.572.977 20.966 17.27 25.17 48.032 8.954 70.302-.84 1.118-1.747 2.305-2.62 3.28 19.907-10.683 27.275-35.545 16.52-55.45zm-80.415 52.17c-16.213-22.27-12.044-53.03 8.918-70.3.487-.403.022-1.188-.573-.98-9.485 3.334-17.408 10.135-22.243 19.11-10.824 19.904-3.386 44.765 16.552 55.45-.95-.977-1.85-2.163-2.66-3.28z" fill="#ff4b55"/></svg>