<svg xmlns="http://www.w3.org/2000/svg" viewBox="0 0 512 512"><path d="M473.655 88.275H38.345C17.167 88.275 0 105.442 0 126.62v258.76c0 21.177 17.167 38.345 38.345 38.345h435.31c21.177 0 38.345-17.167 38.345-38.345V126.62c0-21.178-17.167-38.345-38.345-38.345z" fill="#41479B"/><path fill="#F5F5F5" d="M0 150.07h512v211.86H0z"/><path d="M301.87 256l22.932-39.722h-45.865L256 176.55l-22.936 39.728H187.2l22.932 39.72L187.2 295.72h45.864L256 335.448l22.936-39.727H324.8L301.87 256zm.432-26.73l-7.933 13.74-7.936-13.74H302.3zM286.87 256l-15.434 26.73h-30.873L225.13 256l15.434-26.73h30.873L286.87 256zM256 202.532l7.936 13.746h-15.872L256 202.532zm-46.302 26.737h15.865l-7.933 13.74-7.932-13.74zm0 53.46l7.933-13.74 7.936 13.74H209.7zM256 309.463l-7.936-13.746h15.872L256 309.465zm38.37-40.476l7.932 13.74h-15.865l7.932-13.74z" fill="#41479B"/></svg>