<svg xmlns="http://www.w3.org/2000/svg" viewBox="0 0 512 512"><path d="M473.655 88.275H38.345C17.167 88.275 0 105.442 0 126.62v258.76c0 21.177 17.167 38.345 38.345 38.345h435.31c21.177 0 38.345-17.167 38.345-38.345V126.62c0-21.178-17.167-38.345-38.345-38.345z" fill="#F5F5F5"/><path d="M305.01 182.53c-40.564-27.04-95.35-15.985-122.375 24.507-13.555 20.21-8.045 47.674 12.235 61.195 20.265 13.52 47.64 8.03 61.16-12.252 13.522-20.28 40.915-25.704 61.18-12.254 20.297 13.52 25.756 40.984 12.216 61.195 27.042-40.55 16.11-95.34-24.417-122.39" fill="#FF4B55"/><path d="M182.634 207.038c-13.555 20.21-8.045 47.674 12.235 61.195 20.26 13.52 47.64 8.03 61.16-12.252 13.52-20.28 40.91-25.7 61.17-12.25 20.3 13.52 25.756 40.99 12.216 61.2-27.006 40.63-81.775 51.55-122.338 24.508-40.527-27.04-51.495-81.827-24.454-122.39" fill="#41479B"/><path d="M349.92 149.19l16.035 24.1c1.347 2.026.802 4.76-1.22 6.113l-4.065 2.723c-2.03 1.358-4.775.812-6.13-1.22l-16.054-24.096c-1.35-2.027-.803-4.766 1.223-6.12l4.08-2.727c2.03-1.355 4.77-.805 6.12 1.226zm24.74 37.16l16.087 24.087c1.358 2.034.804 4.786-1.237 6.134l-4.084 2.7c-2.026 1.34-4.754.79-6.103-1.23l-16.078-24.06c-1.354-2.02-.81-4.76 1.217-6.12l4.075-2.72c2.026-1.354 4.768-.81 6.123 1.22zm-7.57-48.62l40.828 61.274c1.352 2.028.803 4.768-1.225 6.12l-4.102 2.734c-2.02 1.352-4.76.804-6.12-1.224l-40.84-61.27c-1.35-2.028-.8-4.77 1.23-6.122l4.118-2.74c2.03-1.346 4.768-.8 6.12 1.23zm17.12-11.44l16.07 24.15c1.355 2.034.8 4.78-1.24 6.127l-4.087 2.7c-2.028 1.34-4.757.79-6.105-1.234l-16.082-24.117c-1.353-2.028-.804-4.77 1.224-6.122l4.1-2.732c2.027-1.352 4.77-.803 6.12 1.23zm24.757 37.24l16.045 24.1c1.35 2.026.803 4.762-1.22 6.115l-4.075 2.724c-2.03 1.35-4.775.8-6.127-1.23l-16.045-24.1c-1.35-2.028-.803-4.76 1.22-6.117l4.075-2.724c2.03-1.357 4.774-.81 6.127 1.223zM132.72 293.982l40.825 61.207c1.352 2.02.806 4.76-1.222 6.12l-4.088 2.73c-2.028 1.35-4.77.8-6.123-1.23l-40.824-61.21c-1.353-2.028-.806-4.768 1.222-6.12l4.09-2.73c2.026-1.355 4.768-.808 6.12 1.22zm-17.138 11.448l16.028 24.04c1.35 2.027.806 4.762-1.217 6.117l-4.066 2.722c-2.027 1.35-4.77.81-6.126-1.22l-16.04-24.04c-1.35-2.03-.81-4.77 1.22-6.12l4.09-2.73c2.027-1.354 4.77-.807 6.122 1.222zm24.768 37.174l16.047 24.102c1.35 2.026.803 4.763-1.222 6.115l-4.078 2.73c-2.03 1.36-4.772.81-6.126-1.22l-16.05-24.1c-1.35-2.022-.8-4.76 1.227-6.12l4.087-2.73c2.03-1.35 4.773-.8 6.126 1.23zm-41.908-25.73l40.798 61.21c1.35 2.027.804 4.765-1.22 6.12l-4.076 2.725c-2.028 1.35-4.77.8-6.125-1.22L86.99 324.5c-1.353-2.028-.804-4.77 1.224-6.122l4.102-2.733c2.025-1.35 4.766-.804 6.12 1.224zm22.852-106.434l40.818-61.256c1.353-2.03 4.095-2.578 6.124-1.224l4.087 2.73c2.027 1.352 2.573 4.092 1.222 6.12l-40.835 61.22c-1.35 2.023-4.08 2.573-6.107 1.23l-4.07-2.694c-2.04-1.348-2.593-4.095-1.24-6.127zm-17.147-11.432l40.825-61.27c1.353-2.03 4.097-2.577 6.126-1.22l4.077 2.725c2.024 1.353 2.57 4.09 1.22 6.116l-40.814 61.27c-1.35 2.03-4.09 2.58-6.12 1.22l-4.09-2.73c-2.02-1.35-2.57-4.09-1.22-6.12zM86.99 187.624l40.83-61.33c1.352-2.03 4.097-2.58 6.126-1.224l4.077 2.726c2.023 1.353 2.57 4.087 1.222 6.114L98.44 195.25c-1.35 2.03-4.093 2.58-6.122 1.227l-4.1-2.734c-2.03-1.352-2.577-4.09-1.228-6.12zm251.503 167.564l16.047-24.035c1.355-2.03 4.1-2.574 6.126-1.217l4.066 2.722c2.023 1.354 2.567 4.09 1.216 6.116l-16.028 24.04c-1.353 2.03-4.095 2.577-6.123 1.223l-4.086-2.728c-2.02-1.36-2.57-4.1-1.21-6.13zm24.75-37.048l16.073-24.153c1.35-2.03 4.094-2.58 6.123-1.227l4.09 2.73c2.03 1.353 2.573 4.096 1.22 6.124l-16.1 24.116c-1.35 2.022-4.08 2.57-6.11 1.227l-4.06-2.692c-2.037-1.35-2.59-4.093-1.24-6.124zm-7.617 48.558l16.057-24.098c1.352-2.03 4.093-2.578 6.122-1.225l4.104 2.737c2.02 1.352 2.57 4.09 1.22 6.12l-16.05 24.1c-1.35 2.028-4.09 2.578-6.12 1.227l-4.117-2.74c-2.028-1.35-2.578-4.1-1.226-6.13zm24.777-37.235l16.066-24.042c1.35-2.02 4.09-2.57 6.11-1.22l4.1 2.74c2.03 1.357 2.577 4.1 1.22 6.13l-16.06 24.04c-1.353 2.024-4.09 2.57-6.118 1.22l-4.103-2.735c-2.03-1.355-2.58-4.098-1.22-6.127zm-7.633 48.617l16.076-24.055c1.35-2.02 4.077-2.57 6.103-1.23l4.08 2.7c2.04 1.348 2.59 4.097 1.24 6.13l-16.068 24.09c-1.35 2.027-4.093 2.574-6.12 1.223l-4.1-2.732c-2.03-1.354-2.576-4.097-1.22-6.125zm24.784-37.11l16.035-24.086c1.35-2.03 4.09-2.58 6.12-1.223l4.07 2.73c2.024 1.356 2.57 4.095 1.22 6.12l-16.05 24.05c-1.35 2.027-4.08 2.576-6.11 1.23l-4.06-2.69c-2.03-1.35-2.587-4.092-1.23-6.123z" fill="#464655"/></svg>