<svg xmlns="http://www.w3.org/2000/svg" viewBox="0 0 512 512"><path d="M473.655 88.275h-341.24v335.448h341.24c21.177 0 38.345-17.167 38.345-38.345V126.62c0-21.178-17.167-38.345-38.345-38.345z" fill="#73AF00"/><path d="M38.345 88.275C17.167 88.275 0 105.442 0 126.62v258.76c0 21.177 17.167 38.345 38.345 38.345h94.07V88.275h-94.07zm373.708 213.913c-40.632 36.196-102.833 32.477-138.956-8.227-36.054-40.625-32.405-103.01 8.226-139.2l.178-.157c.96-.843.036-2.376-1.16-1.912-40.07 15.605-68.475 54.58-68.475 100.215 0 59.445 48.07 107.588 107.373 107.588 41.023 0 76.574-23.083 94.633-56.97.6-1.13-.81-2.23-1.766-1.376l-.05.046zM359.787 172.59l14.12 15.84 19.56-8.232c2.532-1.066 4.964 1.705 3.578 4.077L386.342 202.6l13.873 16.058c1.796 2.08-.088 5.248-2.772 4.663l-20.735-4.512-10.986 18.156c-1.422 2.35-5.018 1.54-5.292-1.195l-2.112-21.117-20.662-4.84c-2.675-.625-3.014-4.295-.498-5.4l19.43-8.533-1.784-21.146c-.232-2.737 3.156-4.192 4.983-2.14z" fill="#F5F5F5"/></svg>