<svg viewBox="0 0 512 512" xmlns="http://www.w3.org/2000/svg"><path d="M13.7 97.25C5.326 104.287 0 114.83 0 126.62v258.76c0 11.79 5.326 22.335 13.7 29.37L256 256z" fill="#f5f5f5"/><path d="M13.7 414.75c6.665 5.598 15.258 8.974 24.644 8.974h435.31c21.177 0 38.345-17.167 38.345-38.345V256H256z" fill="#ff4b55"/><path d="M473.655 88.276H38.345c-9.386 0-17.98 3.378-24.644 8.975L256 256h256V126.62c0-21.177-17.167-38.344-38.345-38.344z" fill="#41479b"/><g fill="#ffe15a"><circle cx="92.69" cy="256" r="28.69"/><path d="M92.69 256l-10.76-43.034 10.76-14.345 10.758 14.35zm0 0l10.758 43.034L92.69 313.38l-10.76-14.346zm0 0l-43.035 10.76L35.31 256l14.345-10.76zm0 0l43.034-10.76L150.07 256l-14.346 10.76zm0 0l22.822-38.037 17.75-2.537-2.535 17.75zm0 0l-22.823 38.037-17.75 2.537 2.535-17.75zm0 0l-38.038-22.823-2.536-17.75 17.75 2.536zm0 0l38.037 22.823 2.536 17.75-17.75-2.536zM23.658 131.694l1.496 11.16-10.076 5.028c-1.304.65-1.03 2.588.405 2.85l11.076 2.026 1.66 11.136c.215 1.442 2.142 1.78 2.835.495l5.35-9.91 11.106 1.85c1.438.24 2.354-1.49 1.348-2.546l-7.77-8.15 5.195-9.99c.67-1.293-.69-2.7-2.005-2.068l-10.15 4.87-7.896-8.03c-1.02-1.036-2.778-.175-2.585 1.27zm4.444 217.212l-1.89 11.1-11.114 1.806c-1.44.234-1.752 2.165-.46 2.84l9.972 5.228-1.717 11.128c-.222 1.44 1.517 2.335 2.56 1.316l8.054-7.87 10.054 5.073c1.31.657 2.69-.722 2.05-2.028l-4.993-10.1 7.93-7.994c1.027-1.035.146-2.78-1.3-2.57l-11.14 1.633-5.152-10.014c-.667-1.293-2.6-.995-2.844.44zm174.632-109.35l-6.48 9.207-10.81-3.15c-1.4-.408-2.514 1.2-1.64 2.367l6.755 9.01-6.34 9.307c-.82 1.205.36 2.76 1.74 2.29l10.654-3.64 6.894 8.903c.893 1.153 2.74.505 2.717-.952l-.17-11.258 10.6-3.806c1.37-.492 1.326-2.45-.067-2.878l-10.76-3.318-.343-11.255c-.043-1.46-1.918-2.02-2.757-.828z"/></g></svg>