<svg xmlns="http://www.w3.org/2000/svg" viewBox="0 0 512 512"><path d="M473.655 423.724H38.345C17.167 423.724 0 406.557 0 385.378V126.62c0-21.177 17.167-38.345 38.345-38.345h435.31c21.177 0 38.345 17.167 38.345 38.345v258.76c0 21.177-17.167 38.344-38.345 38.344z" fill="#FF4B55"/><path d="M38.345 88.275C17.167 88.275 0 105.442 0 126.62v258.76c0 21.177 17.167 38.345 38.345 38.345H185.38V88.275H38.344z" fill="#73AF00"/><circle cx="185.45" cy="255.999" r="79.38" fill="#FFE15A"/><path d="M211.932 229.516v35.31c0 14.603-11.88 26.483-26.483 26.483s-26.49-11.88-26.49-26.49v-35.31h52.963m8.827-17.658h-70.62c-4.874 0-8.827 3.953-8.827 8.83v44.136c0 24.376 19.762 44.14 44.138 44.14s44.14-19.76 44.14-44.14v-44.13c0-4.876-3.95-8.83-8.824-8.83z" fill="#FF4B55"/><path d="M211.932 229.516v35.31c0 14.603-11.88 26.483-26.483 26.483s-26.49-11.88-26.49-26.49v-35.31h52.963" fill="#F5F5F5"/><g fill="#FFE15A"><circle cx="150.07" cy="220.689" r="4.414"/><circle cx="220.69" cy="220.689" r="4.414"/><circle cx="150.07" cy="255.999" r="4.414"/><circle cx="220.69" cy="255.999" r="4.414"/><circle cx="185.38" cy="220.689" r="4.414"/><circle cx="211.88" cy="288.549" r="4.414"/><circle cx="159.4" cy="288.549" r="4.414"/></g><path d="M191.15 253.76v7.603c0 3.144-2.56 5.702-5.703 5.702s-5.702-2.558-5.702-5.702v-7.602h11.404m0-18.02v7.61c0 3.144-2.56 5.7-5.71 5.7s-5.7-2.56-5.7-5.7v-7.603h11.402m0 36.23v7.6c0 3.146-2.56 5.704-5.703 5.704s-5.7-2.56-5.7-5.703v-7.6h11.403m15.356-18.21v7.603c0 3.14-2.556 5.7-5.7 5.7s-5.7-2.56-5.7-5.704v-7.602h11.4m-30.71 0v7.603c0 3.142-2.558 5.7-5.7 5.7s-5.704-2.558-5.704-5.7v-7.604h11.404" fill="#41479B"/></svg>