<svg width="250" height="54" viewBox="0 0 250 54" xmlns="http://www.w3.org/2000/svg"><g fill="none" fill-rule="evenodd"><rect fill="#24273f" x=".5" y=".5" width="249" height="53" rx="10"/><text font-family="Helvetica-Bold, Helvetica" font-size="9" font-weight="bold" fill="#FFF"><tspan x="53" y="20">LEAVE A REVIEW ON</tspan></text><text font-family="Helvetica-Bold, Helvetica" font-size="16" font-weight="bold" fill="#FFF"><tspan x="52" y="40">Product Hunt</tspan></text><path d="M241.456 23.63l-11.578-.316L226 12.4l-3.878 10.914-11.578.315 9.183 7.06-3.28 11.11L226 35.25l9.552 6.55-3.28-11.11 9.184-7.06zM226 31.853l-4.637 3.18 1.592-5.392-4.456-3.425 5.616-.152 1.882-5.3 1.88 5.298 5.62.155-4.456 3.427 1.592 5.393-4.636-3.18z" fill="#FFF"/><path d="M42 27.5C42 36.06 35.06 43 26.5 43 17.94 43 11 36.06 11 27.5 11 18.94 17.94 12 26.5 12 35.06 12 42 18.94 42 27.5" fill="#EA532A"/><path d="M28.433 27.956h-4.34v-4.65h4.34c1.27 0 2.298 1.04 2.298 2.325 0 1.287-1.026 2.328-2.295 2.328m0-7.75H21.03v15.5h3.063v-4.65h4.34c2.96 0 5.36-2.43 5.36-5.425 0-2.995-2.4-5.424-5.36-5.424" fill="#FFF"/></g></svg>