<svg viewBox="0 0 1096.9 900" xmlns="http://www.w3.org/2000/svg" xmlns:xlink="http://www.w3.org/1999/xlink"><filter id="a" color-interpolation-filters="sRGB" height="1.5751" width="1.1961" x="-.098032" y="-.28757"><feGaussianBlur stdDeviation="19.766649"/></filter><filter id="b" color-interpolation-filters="sRGB" height="1.2296" width="1.2146" x="-.1073" y="-.1148"><feGaussianBlur stdDeviation="4.1197347"/></filter><filter id="c" color-interpolation-filters="sRGB"><feGaussianBlur stdDeviation="3.8779519"/></filter><filter id="d" color-interpolation-filters="sRGB" height="1.2272" width="1.0907" x="-.045357" y="-.11362"><feGaussianBlur stdDeviation="3.8779519"/></filter><radialGradient id="e" cx="-130.53" cy="187.19" gradientTransform="matrix(2.4379 -.02685 .0074275 .67438 186.3 57.447)" gradientUnits="userSpaceOnUse" r="256.71"><stop offset="0" stop-color="#ccc"/><stop offset="1" stop-color="#666"/></radialGradient><radialGradient id="f" cx="290.91" cy="366.14" gradientTransform="matrix(2.2195 .013835 -.015485 2.4843 -349.11 -547.48)" gradientUnits="userSpaceOnUse" r="65.434"><stop offset="0" stop-color="#ececec"/><stop offset="1" stop-color="#666"/></radialGradient><g transform="matrix(1.413 0 0 1.413 981.97 1016.556)"><path d="m-159.6-28.31c-13.809-15.776-30.641-33.593-31.315-54.548-.71149-22.125 16.236-41.724 29.294-59.599 14.329-19.614 30.654-39.946 52.528-50.508 31.82-15.363 70.575-21.862 105.06-14.142 33.267 7.4477 61.841 31.37 85.863 55.558 25.605 25.781 42.508 59.34 58.589 91.924 18.715 37.922 27.562 80.002 43.437 119.2 6.507 16.066 13.509 31.95 21.213 47.477 21.501 43.33 57.242 80.54 69.701 127.28 8.6745 32.542 2.0203 101.02 2.0203 101.02s-24.936-45.947-39.396-67.68c-10.52-15.811-18.669-34.737-34.345-45.457-15.31-10.469-36.895-6.9672-53.538-15.152-23.32-11.48-41.87-30.82-62.627-46.47-82.647-62.325-178.3-111.01-246.47-188.9z" fill="#f10100" transform="translate(-272.53 -509.07)"/><path d="m149.5 24.218s-46.48-69.475-73.741-101.02c-16.349-18.915-33.866-37.099-53.538-52.528-19.631-15.397-67.68-39.396-63.64-39.396 4.0406 0 28.432-10.186 42.426-7.0711 35.92 7.9963 67.307 34.4 90.914 62.629 27.745 33.178 40.08 77.085 53.538 118.19 2.0344 6.2133 4.0406 19.193 4.0406 19.193z" fill="#c10c0b" filter="url(#c)" opacity=".86574" transform="translate(-272.53 -509.07)"/><path d="m17.173-80.838c26.608-10.795 45.936 34.684 66.67 54.548 21.181 20.293 42.38 41.212 58.589 65.66 7.8236 11.8 18.183 38.386 18.183 38.386s-28.978-29.225-45.457-41.416c-16.994-12.572-35.834-22.51-54.551-32.327-16.411-8.6075-41.417-7.0845-50.507-23.233-10.142-18.016-12.087-53.847 7.0711-61.619z" fill="#c10c0b" filter="url(#c)" opacity=".86574" transform="translate(-272.53 -509.07)"/><path d="m95.094 51.375c-15.062.547-38.532 16.281-38.532 16.281s7.0108 48.161 21.094 86.062c3.0906 2.2702 6.1617 4.5697 9.2188 6.875 20.755 15.651 39.298 34.997 62.625 46.469 8.9804 4.4165 19.404 5.4204 29.5 7.0625-.99035-4.8897-2.068-9.5098-3.2188-13.125-4.387-13.782-28.973-29.77-18.188-39.406 9.6893-8.6567 23.223 12.032 33.312 20.219 22.384 18.162 59.094 63.125 59.094 63.125s-22.505-66.78-40.906-96.469c-11.448-18.471-26.264-34.952-42.406-49.5-20.66-18.632-41.02-44.236-68.67-47.467-.92-.108-1.902-.161-2.906-.125z" fill="#c10c0b" filter="url(#c)" opacity=".86574" transform="matrix(1 0 0 .9798 -272.53 -508.22)"/><g transform="translate(-272.53 -509.07)"><path d="m-330.32 126.24s-8.4978-43.139-1.0102-62.629c4.7846-12.454 17.154-20.6 27.274-29.294 13.601-11.685 31.722-17.67 44.447-30.305 3.778-3.7512 4.7843-10.002 9.0914-13.132 2.844-2.0664 10.102-3.0305 10.102-3.0305s-2.2656-9.3866-2.0203-14.142c.35762-6.9324.59184-14.883 5.0508-20.203 9.004-10.743 24.537-15.009 38.386-17.173 6.0251-.94146 18.183 2.0203 18.183 2.0203s-9.2139-13.732-8.0812-21.213c3.8417-25.374 23.819-50.664 47.477-60.609 36.7-15.428 82.96-4.3672 118.7 13.16 22.771 11.165 44.956 30.576 52.933 54.65 3.5704 10.775-7.3838 22.817-4.397 33.768 5.5363 20.298 26.899 32.434 38.8 49.784 12.538 18.279 27.664 35.844 34.213 57.021 6.97 22.538 4.2031 70.649 4.2031 70.649" fill="#f10100"/><path d="m86.873 134.32s-35.53-39.626-48.487-62.629c-6.905-12.254-18.923-25.836-15.152-39.392 2.057-7.397 18.182-14.142 18.182-14.142s-32.987 15.022-50.508 19.193c-28.324 6.7429-57.757 9.1091-86.873 9.0914-28.781-.01752-85.863-9.0914-85.863-9.0914s57.762 11.484 79.802 29.294c23.542 19.023 48.487 76.772 48.487 76.772l145.46-4.0406" fill="#c10c0b" filter="url(#c)" opacity=".86574"/><path d="m-14.142.98464c-7.329-4.7534-5.398-17.657-12.122-23.234-21.399-17.748-52.199-27.555-79.806-24.244-8.5432 1.0248-14.128 10.216-22.223 13.132-14.114 5.084-36.473 19.778-44.447 7.0711-5.0143-7.9912 8.233-18.122 16.162-23.234 10.935-7.0492 26.048-2.9425 38.386-7.0711 11.424-3.8227 20.322-15.135 32.325-16.162 22.076-1.8892 45.785 6.0721 63.64 19.193 9.1812 6.7471 9.5997 22.137 19.193 28.284 8.6225 5.5252 23.685-2.7632 30.305 5.0508 5.1147 6.0377 5.763 18.316 0 23.739-10.069 9.478-29.808 5.0011-41.412-2.5254z" fill="#c10c0b" filter="url(#d)" opacity=".86574"/><path d="m-337.39 82.807c28.807-7.1098 58.266 12.35 87.883 14.142 52.135 3.1544 104.36-7.4028 156.57-6.0609 52.386 1.3463 104.26 17.273 156.57 14.142 16.151-.96668 33.062-17.45 47.477-10.102 8.8635 4.5187 10.805 17.413 12.122 27.274 2.9318 21.949-9.7882 43.518-10.102 65.66-.30723 21.715 15.129 44.108 8.0812 64.65-4.6362 13.512-17.535 23.9-30.305 30.305-16.728 8.3906-36.877 6.9781-55.558 8.0812-50.774 2.998-101.67-4.2145-152.53-4.0406-50.535.17276-101.19 9.5368-151.52 5.0508-28.812-2.5678-60.285-2.9125-84.853-18.183-17.508-10.882-26.384-17.138-30.305-37.376-4.0729-21.024 7.0396-51.536 10.102-72.731 2.5516-17.663-7.981-37.576 0-53.538 6.7763-13.553 21.655-23.643 36.365-27.274z" fill="url(#e)"/></g><path d="m-601.59-410.65c27.365-5.8748 55.35 10.205 83.485 11.685 49.525 2.6064 99.137-6.1168 148.74-5.008 49.764 1.1124 99.045 14.272 148.74 11.685 15.343-.79875 31.408-14.419 45.101-8.3467 8.4198 3.7337 10.264 14.388 11.515 22.536 2.7851 18.136-9.2983 35.958-9.5959 54.254-.29185 17.943 13.362 26.344 6.6666 43.318-4.4042 11.165-16.658 19.748-28.788 25.04-15.891 6.933-35.031 5.7659-52.778 6.6774-48.232 2.4772-96.582-3.4824-144.9-3.3387-48.006.14275-96.122 7.8801-143.94 4.1734-27.37-2.1217-57.268-2.4066-80.606-15.024-16.631-8.9918-25.064-14.161-28.788-30.883-3.869-17.372 7.6974-32.482 10.606-49.995 2.4239-14.594-7.5815-31.049 0-44.238 6.4371-11.198 20.571-19.536 34.545-22.536z" fill="#fff" filter="url(#a)" opacity=".78205"/><path d="m273.75 308.07c-10.984 2.7331-23.851 4.6222-31.315 13.132-10.126 11.545-10.464 29.18-12.122 44.447-1.4556 13.407-5.3538 29.115 2.0203 40.406 8.2342 12.608 25.42 18.732 40.406 20.203 17.723 1.74 37.107-3.6798 51.518-14.142 14.359-10.425 27.269-26.819 29.294-44.447 1.8845-16.405-5.5241-34.763-17.173-46.467-10.147-10.196-26.151-13.23-40.406-15.152-7.3716-.99416-15.005.22425-22.223 2.0203z" fill="url(#f)" transform="translate(-272.53 -509.07)"/><path d="m6.812-189.97c-7.0839 1.7626-15.382 2.981-20.196 8.4692-6.5304 7.446-10.789 18.819-11.858 28.665-.93874 8.6464-7.4934 20.293-2.7377 27.574 5.3105 8.1311 24.98 20.162 34.645 21.111 11.43 1.1222 26.457-5.4036 35.751-12.151 5.1717-3.7548 5.3164-14.831 9.1236-21.847 3.0099-5.5462 10.203-6.8496 10.779-11.869 1.2154-10.58-6.088-19.389-13.601-26.938-6.5442-6.5755-18.381-7.5221-27.574-8.762-4.7542-.64117-9.6773-5.4112-14.333-4.2529z" fill="#ececec" filter="url(#b)" opacity=".79487" transform="matrix(1.1145 0 0 1.1145 -1.8749 16.837)"/></g></svg>