<svg viewBox="0 0 512 512" xmlns="http://www.w3.org/2000/svg"><path d="M473.655 423.724H38.345C17.167 423.724 0 406.557 0 385.38V126.62c0-21.176 17.167-38.344 38.345-38.344h435.31c21.177 0 38.345 17.167 38.345 38.345v258.76c0 21.18-17.167 38.35-38.345 38.35z" fill="#73af00"/><g fill="#f5f5f5"><path d="M105.94 202.278c.87 5.577 4.24 7.327 7.17 7.098 3.457-.268 6.488-3.428 6.488-6.766v-19.138c0-.958.78-1.74 1.74-1.74s1.74.78 1.74 1.74v19.22c0 2.31 1.142 4.466 3.057 5.76 1.17.792 2.53 1.2 3.9 1.2.874 0 1.75-.168 2.587-.5l1.74-.696c.16 16.065-.818 30.184-.836 30.443-.136 1.91 1.306 3.58 3.223 3.71.08.005.16.01.25.01 1.81 0 3.33-1.4 3.47-3.23.08-1.13 1.15-16.597.83-33.718l1.05-.42c.92-.368 1.96-.324 2.84.12 3.83 1.91 8.443 1.163 11.472-1.865l.627-.625c2.812-2.818 3.78-6.91 2.52-10.685l-2.963-8.89c1.602.486 3.362-.223 4.136-1.77.86-1.715.165-3.805-1.554-4.665l-6.96-3.48c-1.26-.632-2.77-.438-3.837.482-1.065.924-1.467 2.395-1.022 3.73l5.6 16.8c.42 1.255.097 2.62-.84 3.56l-.626.625c-.905.91-2.287 1.13-3.44.56-2.257-1.13-4.825-1.34-7.234-.726-.49-11.17-1.69-22.292-4.252-29.98-.607-1.823-2.574-2.81-4.403-2.2-1.822.605-2.807 2.575-2.2 4.4 2.508 7.52 3.6 18.98 3.988 30.373l-4.166 1.667v-19.22c0-4.8-3.904-8.7-8.7-8.7s-8.7 3.9-8.7 8.7v16.844l-3.55-17.534c-.38-1.887-2.213-3.117-4.1-2.723-1.886.388-3.104 2.22-2.72 4.106zm6.7-29.245c1.92 0 3.48-1.557 3.48-3.48v-3.48c0-1.922-1.56-3.48-3.48-3.48-1.922 0-3.48 1.557-3.48 3.48v3.48c0 1.923 1.558 3.48 3.48 3.48zm34.797-3.48h3.48c1.922 0 3.48-1.556 3.48-3.48s-1.558-3.48-3.48-3.48h-3.48c-1.922 0-3.48 1.557-3.48 3.48 0 1.924 1.558 3.48 3.48 3.48z"/><path d="M124.768 215.286l-17.4 10.44c-1.648.99-2.18 3.126-1.192 4.775.652 1.09 1.804 1.69 2.987 1.69.61 0 1.227-.16 1.788-.49l17.4-10.44c1.65-.99 2.19-3.124 1.2-4.773-.99-1.65-3.123-2.18-4.773-1.192z"/><path d="M171.68 221.44l.083-.054c.292 1.176.793 2.314 1.606 3.27 1.41 1.665 3.53 2.502 5.93 2.304 3.39-.248 5.7-1.8 7.23-3.806.232.16.48.306.733.435 1.88.94 4.056.87 6.127-.2 5.26-2.71 6.39-8.98 6.23-12.25-.092-1.91-1.716-3.26-3.62-3.3-1.91.08-3.4 1.7-3.33 3.61 0 .043.08 4.172-2.445 5.705-.41-.574-.9-1.866-1.082-2.933-.295-1.79-1.94-3.038-3.71-2.895-1.804.14-3.198 1.657-3.204 3.47 0 .504-.115 4.97-3.56 5.343-.4-.547-.41-2.85-.015-4.554.332-1.397-.228-2.855-1.41-3.67-1.183-.82-2.744-.82-3.933-.013l-1.942 1.32c-.92-20.18-3.046-43.696-3.072-43.997-.176-1.91-1.858-3.333-3.78-3.15-1.917.174-3.328 1.867-3.15 3.784.03.324 2.484 27.53 3.24 48.308-.18.17-.36.354-.535.516-1.376-3.47-4.104-5.654-7.617-5.986-4.958-.438-10.33 2.936-12.256 7.755-1.66 4.145-.614 8.22 2.66 10.38 2.356 1.55 5.91 2.04 10.38.473-1.092 3.833-3.08 7.72-5.66 10.728-2.314 2.696-6.176 5.805-11.118 5.666-2.88-.113-5.09-1.054-6.76-2.88-4.03-4.402-3.68-12.367-3.68-12.452.1-1.917-1.367-3.55-3.28-3.657-1.93-.2-3.56 1.366-3.67 3.286-.024.44-.53 10.91 5.464 17.49 2.95 3.245 6.87 4.982 11.65 5.17.233.01.466.012.7.012 5.82 0 11.47-2.856 15.968-8.1 4.233-4.93 7.107-11.622 7.97-17.836-.01 11.905-7.186 25.33-16.697 31.246-4.04 2.506-10.335 4.77-17.43 1.272-8.74-4.317-7.7-14.31-7.654-14.72.24-1.906-1.115-3.646-3.02-3.883-1.9-.23-3.65 1.11-3.886 3.02-.08.623-1.75 15.293 11.48 21.82 3.4 1.68 6.955 2.512 10.537 2.512 4.6 0 9.244-1.377 13.646-4.116 11.58-7.197 19.985-22.835 19.985-37.182 0-2.244-.043-4.694-.115-7.27zm-20.98 3.588c-.623-.412-.137-1.726-.032-1.987.733-1.83 3.025-3.42 4.856-3.42.094 0 .19.01.28.02.445.04 1.626.154 2.134 2.78.054.28.1.565.136.857-3.878 2.277-6.478 2.35-7.375 1.76zm-36.303 32.005c-1.65-.97-3.778-.415-4.758 1.234-.16.268-.38.56-.59.825-.04-.088-.08-.183-.12-.286-1.45-3.87-.42-9.834.103-11.806.49-1.856-.614-3.758-2.468-4.255-1.853-.476-3.758.605-4.256 2.46-.254.942-2.393 9.39.1 16.044 1.6 4.25 4.05 5.32 5.827 5.47.16.01.314.02.47.02 3.745 0 6.24-3.78 6.932-4.97.96-1.66.396-3.77-1.254-4.74z"/><path d="M178.612 193.91c.753 0 1.51-.24 2.147-.743l17.54-13.773c.24-.19.39-.44.57-.673 2.523-1.52 4.233-4.26 4.233-7.42 0-4.8-3.903-8.7-8.7-8.7s-8.7 3.9-8.7 8.7c0 2.688 1.25 5.06 3.164 6.658l-12.417 9.748c-1.51 1.187-1.774 3.375-.59 4.884.69.875 1.71 1.33 2.743 1.33zm15.802-24.357c.96 0 1.74.78 1.74 1.74s-.78 1.74-1.74 1.74-1.74-.78-1.74-1.74.78-1.74 1.74-1.74zm-4.12 21.06c-1.832-.61-3.795.376-4.402 2.2-.372 1.112-2.055 6.853 1.356 10.26 1.323 1.325 3.063 1.99 5.2 1.985 1.427 0 3.03-.292 4.806-.887 1.823-.6 2.808-2.57 2.2-4.4-.608-1.82-2.575-2.81-4.403-2.2-1.94.65-2.76.55-2.84.61-.2-.51-.07-2.07.29-3.18.6-1.81-.38-3.78-2.2-4.38zm39.826-14.386c.328.095.655.14.978.14 1.507 0 2.895-.986 3.34-2.506l2.03-6.95c.537-1.844-.523-3.78-2.366-4.315-1.85-.534-3.777.52-4.316 2.365l-2.03 6.96c-.54 1.846.52 3.78 2.365 4.316zm-20.282-.407c.553.322 1.158.475 1.753.475 1.2 0 2.36-.615 3.01-1.722.97-1.658.41-3.793-1.24-4.76-.7-.408-.604-1.56-.58-1.788.105-.914.65-2.03 1.598-2.325 1.835-.57 2.86-2.52 2.29-4.356-.575-1.838-2.52-2.855-4.36-2.29-3.47 1.08-5.998 4.29-6.443 8.18-.412 3.617 1.114 6.907 3.98 8.585zm-27.604 56.37c-1.922 0-3.48 1.556-3.48 3.48 0 1.698 1.217 3.112 2.827 3.417.19.268.66 1.19.66 3.54 0 1.924 1.56 3.48 3.48 3.48s3.48-1.555 3.48-3.48c0-10.32-6.673-10.438-6.96-10.438zm59.036-14.41c.437.072.872.106 1.31.106 2.733 0 5.495-1.38 8.23-4.115 1.36-1.35 1.36-3.56 0-4.92s-3.56-1.35-4.92 0c-2.08 2.09-3.2 2.13-3.487 2.07-.664-.093-1.266-.96-1.4-1.2-.873-1.69-2.943-2.365-4.647-1.513-1.72.86-2.417 2.95-1.556 4.67.214.43 2.224 4.22 6.47 4.91zm59.15-24.454c-.023-.054-.044-.106-.06-.153-.618-1.807-2.59-2.79-4.393-2.175-1.825.605-2.81 2.575-2.202 4.4.27.816 1.822 4.908 5.662 5.424.256.034.512.05.765.05 2.41 0 4.673-1.56 6.73-4.645 1.065-1.597.633-3.758-.966-4.825-1.6-1.064-3.762-.636-4.825.966-.27.41-.51.724-.71.958z"/><path d="M293.587 256.547c0-14.84-.652-28.76-1.558-40.958 4.94 8.56 9.38 17.22 12.21 24.78.523 1.39 1.85 2.25 3.26 2.25.403 0 .82-.07 1.22-.22 1.8-.678 2.71-2.68 2.036-4.484-4.405-11.74-12.32-25.726-20.124-38.14-1.903-18.745-4.033-30.643-4.07-30.855-.344-1.892-2.15-3.17-4.046-2.8-1.89.34-3.142 2.153-2.8 4.043.03.15 1.125 6.28 2.435 16.594-2.673-3.967-5.155-7.546-7.24-10.49l.17.052c1.834.61 3.795-.38 4.404-2.2.608-1.825-.377-3.796-2.2-4.4l-10.44-3.48c-1.448-.49-3.037.027-3.923 1.264-.235.33-.4.69-.51 1.066-2.08-1.54-4.752-2.793-7.26-1.742-1.517.63-3.325 2.214-3.325 6.193 0 3.056 1.165 6.36 2.4 9.86 2.05 5.803 3.333 10.07 1.163 12.107-1.198 1.125-2.397 1.55-3.565 1.255-2.146-.544-4.27-3.402-5.685-7.646-.06-.185-.19-.32-.276-.484.73-5.39.412-11.884-1.063-19.253-.375-1.887-2.204-3.11-4.095-2.73-1.885.38-3.106 2.21-2.73 4.095 2.273 11.362 1.59 20.633-1.822 24.796-1.32 1.61-2.973 2.358-5.203 2.358-.71 0-1.19-.22-1.67-.77-2.742-3.164-2.73-13.37-1.845-19.615.14-.994-.158-2.007-.82-2.77-.66-.76-1.618-1.198-2.626-1.198-5.99 0-8.26 6.81-10.26 12.818-.88 2.64-2.52 7.55-3.66 8.06-2.108 0-3.47-6.184-3.48-10.442-.008-1.92-1.56-3.472-3.48-3.472h-.008c-1.92 0-3.474 1.558-3.474 3.478 0 8.026 2.732 17.4 10.44 17.4 5.736 0 8.06-6.253 10.006-12.065.338 4.62 1.382 9.41 3.947 12.366 1.8 2.08 4.196 3.177 6.924 3.177 4.295 0 7.954-1.697 10.584-4.905.475-.58.885-1.248 1.29-1.92 2.02 2.872 4.5 4.766 7.29 5.47.82.208 1.642.313 2.46.313 2.683 0 5.31-1.11 7.575-3.24.47-.44.803-.926 1.162-1.403.85.24 1.713.382 2.57.382 2.82 0 5.533-1.136 7.217-2.217 1.61-1.034 2.077-3.168 1.054-4.786-1.025-1.612-3.17-2.095-4.79-1.082-.03.014-2.356 1.35-3.94 1.037.003-3.815-1.377-7.866-2.637-11.435-.716-2.034-1.45-4.116-1.8-5.818.29.24.57.492.82.736 1.357 1.36 3.56 1.36 4.92 0 .225-.224.355-.497.505-.76 3.607 4.97 11.026 15.41 18.657 27.447 1.457 14.796 2.735 33.67 2.735 54.37 0 1.92 1.556 3.48 3.48 3.48 1.92 0 3.48-1.555 3.48-3.48zm3.48-76.555c0 1.923 1.558 3.48 3.48 3.48s3.48-1.557 3.48-3.48c0-4.095-3.204-10.71-3.847-11.996-.86-1.716-2.948-2.41-4.67-1.556-1.718.86-2.416 2.95-1.555 4.67 1.255 2.51 3.112 7.067 3.112 8.882zm-15.834 76.936c-1.706-.87-3.802-.18-4.67 1.533-.375.73-.954 1.55-1.443 2.07-.154-1.38.214-4.14.916-6.43.467-1.53-.167-3.18-1.536-4.002-1.365-.824-3.123-.61-4.252.52l-6.96 6.96c-1.358 1.36-1.358 3.56 0 4.92s3.562 1.36 4.92 0l.178-.177c.3 1.397.877 2.67 1.863 3.657 1.3 1.304 2.88 1.994 4.52 1.994.31 0 .63-.03.95-.08 3.94-.64 6.394-4.984 7.052-6.3.856-1.72.163-3.792-1.548-4.655z"/><path d="M279.885 228.926H255.36c.217-.866.44-1.693.67-2.477 9.78-2.04 15.593-5.19 17.302-9.41.59-1.46 1.208-4.416-1.31-7.81-2.268-3.06-5.47-4.43-8.796-3.75-4.945 1-9.35 6.33-12.512 14.86-9.824 1.68-16.11 5.205-20.092 8.69-1.412-14.26-6.948-22.73-7.217-23.137-1.067-1.6-3.23-2.033-4.825-.966-1.6 1.07-2.03 3.226-.966 4.826.063.094 6.375 9.75 6.375 25.907 0 15.884-12.67 27.84-20.88 27.84-3.91 0-5.62-4.643-6.37-8.57 8.04-5.637 15.14-12.16 16.7-18.425 2.12-8.48-.55-14.73-2.316-18.864-.083-.19-.17-.39-.258-.602.074.07.145.14.216.206 1.356 1.357 3.56 1.357 4.92 0s1.36-3.564 0-4.92c-2.035-2.038-5.985-5.236-9.576-3.734-1.516.63-3.325 2.212-3.325 6.19 0 1.8.75 3.555 1.62 5.594 1.566 3.668 3.515 8.232 1.96 14.443-.92 3.678-5.43 8.137-11.39 12.565-.64-.764-1.56-1.277-2.63-1.277h-.006c-1.92 0-3.475 1.555-3.475 3.475 0 .627.026 1.296.066 1.983-7.45 4.823-15.876 9.287-22.39 12.25-1.75.795-2.52 2.857-1.727 4.607.58 1.28 1.845 2.04 3.17 2.04.48 0 .97-.1 1.435-.314 1.957-.89 11.244-5.215 20.784-11.127 1.757 5.964 5.48 11.44 12.575 11.44 8.348 0 17.818-6.826 23.284-17.017.66 1.165 1.416 2.28 2.32 3.322 8.76 10.1 25.867 10.214 26.59 10.214 1.875 0 3.41-1.48 3.48-3.35.065-1.873-1.36-3.463-3.23-3.595-.028-.003-2.8-.31-4.343-2.11-.93-1.09-1.303-2.583-1.14-4.57.357-4.29 14.19-7.495 26.38-7.684 1.453-.023 2.74-.944 3.227-2.313l3.48-9.787c.373-1.065.21-2.25-.44-3.17-.646-.93-1.71-1.48-2.84-1.48zM264.61 212.31c.067-.014.155-.035.266-.035.333 0 .858.163 1.558 1.108.132.177.556.78.45 1.047-.4.985-2.803 2.613-7.81 4.088 2.203-4.296 4.356-5.97 5.537-6.21zm-21.014 45.742c-3.535-1.15-7.138-2.97-9.632-5.855-2.74-3.17-3.753-7.18-3.09-12.254.1-.267.33-.792.727-1.475 4.9-.45 18 1.483 18.9 5.23-4.04 2.062-7.01 4.96-7.35 9.08-.17 2.067.04 3.817.455 5.274zm74.172-79.162l-3.48-10.44c-.56-1.677-2.303-2.68-4.03-2.3-1.734.37-2.91 1.984-2.734 3.748 2.4 24.012 6.943 70.84 6.943 76.21 0 4.82-8.577 14.315-22.435 21.245-1.72.86-2.417 2.95-1.556 4.67.61 1.22 1.838 1.922 3.116 1.922.522 0 1.054-.12 1.553-.367 12.66-6.33 26.282-17.626 26.282-27.47 0-5.143-3.556-42.135-5.593-62.915 1.65-.704 2.51-2.568 1.934-4.302zm29.035 31.4c.67.67 1.56 1.02 2.462 1.02.588 0 1.18-.148 1.72-.455 1.36-.775 2.036-2.365 1.65-3.884-.622-2.44-.83-5.5-.5-6.75 1.743.06 3.36-1.18 3.617-2.98.27-1.902-1.05-3.666-2.952-3.94-2.3-.31-4.32.365-5.732 1.935-.914 1.02-1.458 2.328-1.753 3.735l-4.03-4.03c-1.36-1.36-3.562-1.36-4.92 0-1.36 1.36-1.36 3.56 0 4.92zm7.827 3.63l-13.048 9.352c-1.56 1.118-1.922 3.293-.802 4.856.68.948 1.748 1.45 2.833 1.45.702 0 1.41-.21 2.024-.65l13.05-9.353c1.56-1.118 1.92-3.293.8-4.856-1.12-1.57-3.3-1.93-4.856-.8zm-1.155 13.086c-1.095 1.41-.938 3.394.305 4.615.15.26.828 1.59.705 5.01-.068 1.93 1.434 3.54 3.354 3.61.04.004.08.004.12.004 1.862 0 3.41-1.48 3.473-3.354.253-7.1-2.07-9.698-3.08-10.484-1.517-1.185-3.707-.906-4.887.61z"/><path d="M383.843 252.632c1.922 0 3.48-1.556 3.48-3.48 0-5.134-.264-10.866-.695-16.83 3.45 5.655 6.317 10.868 8.155 15.155.564 1.322 1.848 2.11 3.2 2.11.457 0 .922-.088 1.37-.282 1.765-.758 2.583-2.804 1.825-4.567-3.186-7.435-9.14-17.283-15.92-27.45-1.366-12.772-3.15-25.287-4.535-34.264.737.075 1.502-.105 2.173-.54 1.1-.705 1.614-1.928 1.54-3.145.09.34.185.68.385 1 .03.03 2.26 3.72 1.27 8.52-.39 1.87.82 3.72 2.71 4.11.24.04.477.07.71.07 1.615 0 3.063-1.13 3.405-2.78 1.57-7.6-2.06-13.42-2.212-13.667-1.032-1.618-3.184-2.093-4.805-1.067-1.1.703-1.623 1.927-1.552 3.147-.09-.342-.19-.69-.392-1.003l-5.87-9.133c-.898-1.392-2.654-1.956-4.194-1.36-1.546.608-2.45 2.215-2.163 3.846.05.274 2.71 15.544 5.066 33.95-2.67-3.768-5.336-7.453-7.923-10.967-.42-5.268-.84-10.135-1.206-14.16.19-.057.38-.13.568-.224 1.72-.86 2.415-2.95 1.555-4.67l-3.48-6.96c-.75-1.5-2.466-2.25-4.08-1.787-1.61.47-2.663 2.02-2.496 3.69.418 4.154.85 8.75 1.27 13.58-2.2-2.9-4.234-5.557-5.98-7.806.34-.294.63-.657.848-1.086.86-1.72.163-3.81-1.556-4.67l-6.96-3.48c-1.46-.723-3.23-.342-4.26.93-1.027 1.27-1.033 3.083-.01 4.36.187.235 8.755 10.975 19.004 24.837 1.776 22.99 2.96 46.91 1.29 51.923-.308.915-.84 1.995-1.343 2.033-2.1.292-7.12-4.41-9.64-9.45-1.453-2.902-3.543-3.204-4.66-3.154-3.74.23-5.2 4.344-7.852 11.814-1.9 5.352-4.262 12.006-6.914 14.728-1.438-1.756-3.296-7.646-4.328-13.7.485 1.338 1.74 2.306 3.244 2.306 1.92 0 3.48-1.557 3.48-3.48 0-5.19-3.63-44.71-5.658-66.37 1.693-.68 2.582-2.57 2-4.326l-3.48-10.44c-.56-1.677-2.278-2.667-4.024-2.303-1.73.37-2.912 1.977-2.744 3.738 2.363 24.824 6.797 72.772 6.935 79.39l-.03-.178c-.27-1.908-2.044-3.21-3.935-2.958-1.903.276-3.223 2.037-2.952 3.94 1.017 7.114 3.614 19.343 9.594 21.335.475.16 1.11.302 1.857.302 1.37 0 3.116-.49 4.898-2.27 3.79-3.79 6.356-11.018 8.62-17.39.513-1.44 1.12-3.144 1.69-4.605 3.19 4.662 8.76 10.466 14.404 10.012 1.985-.144 5.594-1.21 7.45-6.778 1.85-5.55 1.12-24.91-.13-43.446 2.934 4.11 5.868 8.317 8.67 12.472 1.087 10.42 1.864 20.86 1.864 29.434 0 1.92 1.56 3.476 3.48 3.476z"/><path d="M410.25 234.33c-2.464-18.365-5.898-39.638-8.073-52.694.982.242 2.052.044 2.915-.62 1.53-1.164 1.822-3.35.655-4.875l-6.307-8.26c-.973-1.27-2.69-1.72-4.16-1.072-1.47.64-2.31 2.206-2.035 3.786.063.356 6.268 36.078 10.106 64.668 1.47 10.926-.67 20.69-5.72 26.113-3.25 3.482-7.553 5.06-12.763 4.755-1.913-.102-3.572 1.338-3.692 3.255s1.336 3.57 3.255 3.69c.59.04 1.17.055 1.74.055 6.564 0 12.26-2.403 16.553-7.012 6.56-7.032 9.307-18.617 7.54-31.778zm-38.28 22.938c-1.28 1.39-1.18 3.578.172 4.89.19.182.415.543.416.72 0 .098-.14.39-.526.778-1.36 1.36-1.36 3.56 0 4.92.68.68 1.57 1.02 2.46 1.02.89 0 1.782-.34 2.462-1.02 2.207-2.206 2.612-4.445 2.562-5.937-.107-3.22-2.294-5.29-2.73-5.67-1.423-1.24-3.538-1.09-4.816.29zm-12.267 76.312h-24.358v-3.48c0-1.923-1.558-3.48-3.48-3.48s-3.48 1.557-3.48 3.48v3.48H143.957c6.96 6.96 20.878 10.44 31.318 10.44h153.11v6.96c0 1.922 1.558 3.48 3.48 3.48h27.838c5.757 0 10.44-4.684 10.44-10.44 0-5.757-4.683-10.44-10.44-10.44zm0 13.92h-24.36v-3.48h27.84l-.626-1.874c.362.548.625 1.167.625 1.873 0 1.92-1.56 3.48-3.48 3.48z"/></g></svg>