<svg xmlns="http://www.w3.org/2000/svg" viewBox="0 0 512 512"><path d="M0 385.38c0 21.176 17.167 38.344 38.345 38.344h435.31c21.177 0 38.345-17.167 38.345-38.345V311.9H0v73.47z" fill="#F5F5F5"/><path d="M473.655 88.276H38.345C17.167 88.276 0 105.443 0 126.62v73.472h512v-73.47c0-21.18-17.167-38.346-38.345-38.346z" fill="#FF4B55"/><path fill="#41479B" d="M0 200.09h512V311.9H0z"/><path fill="#FFE15A" d="M173.02 200.07h-63.558l-2.648-15.89h68.855"/><path fill="#FFD350" d="M108.8 196.097l.662 3.973h63.56l.66-3.973"/><g fill="#FFE15A"><path d="M139.92 147.1h2.648v10.593h-2.648z"/><path d="M137.27 149.75h7.945v2.648h-7.945zm35.958 39.726c-.3 0-.604-.052-.903-.158-1.375-.5-2.086-2.017-1.587-3.393l5.61-15.48c.278-.77.212-1.614-.18-2.32-.21-.375-.695-1.035-1.624-1.234-6.84-1.45-20.096-3.89-32.024-3.89h-2.558c-11.927 0-25.184 2.447-32.026 3.9-.926.2-1.414.86-1.62 1.23-.393.71-.46 1.55-.18 2.32l5.61 15.48c.498 1.38-.213 2.898-1.588 3.397-1.374.49-2.895-.215-3.392-1.59l-5.61-15.48c-.8-2.21-.61-4.65.526-6.693 1.097-1.98 2.973-3.38 5.15-3.843 7.046-1.5 20.717-4.017 33.13-4.017h2.558c12.413 0 26.084 2.515 33.128 4.01 2.18.465 4.055 1.866 5.152 3.845 1.135 2.046 1.326 4.484.527 6.694l-5.61 15.48c-.39 1.08-1.407 1.747-2.49 1.747z"/><path d="M141.25 187.16c-1.46 0-2.647-1.185-2.647-2.65v-21.516c0-1.464 1.186-2.648 2.648-2.648s2.65 1.184 2.65 2.648v21.517c0 1.47-1.18 2.65-2.65 2.65z"/><path d="M159.56 189.476c-.18 0-.36-.018-.542-.054-1.433-.298-2.353-1.7-2.055-3.132l3.212-15.48c.417-2.018-.236-3.785-.608-4.095-3.672-1.347-11.04-3.722-17.594-3.722h-1.465c-6.554 0-13.92 2.375-17.73 3.79-.235.242-.89 2.008-.472 4.025l3.212 15.48c.298 1.433-.622 2.836-2.055 3.133-1.434.28-2.836-.62-3.13-2.05l-3.212-15.48c-.8-3.86.43-8.8 3.81-10.06 5.07-1.88 12.57-4.124 19.58-4.124h1.47c7.015 0 14.518 2.24 19.577 4.12 3.383 1.266 4.61 6.208 3.81 10.067l-3.21 15.48c-.26 1.253-1.36 2.11-2.59 2.11z"/></g><path fill="#FFD350" d="M107.476 188.152h67.53l.663-3.972h-68.86"/><path d="M90.924 200.07c-1.463 0-2.648 1.186-2.648 2.648v92.486c0 29.365 23.713 53.17 52.966 53.17s52.966-23.805 52.966-53.17v-92.486c0-1.463-1.185-2.648-2.648-2.648H90.924z" fill="#FF4B55"/><path d="M146.538 287.463l5.297-13.24-10.593 2.647-10.593-2.648 5.29 13.24-13.24 45.022s7.94 5.297 18.534 5.297 18.54-5.29 18.54-5.29l-13.244-45.02z" fill="#F5F5F5"/><path fill="#FFE15A" d="M122.06 298.135l-4.672 1.17 10.28-18.503-4.63-2.57-12.486 22.472H98.87V306h5.69l-7.345 5.876 3.308 4.138 6.24-4.992-2.462 7.38 5.03 1.677 4.84-14.52 9.185-2.297"/><path d="M122.703 226.552l-12.09-6.045c-2.22-1.11-3.37-3.614-2.77-6.022l.685-2.735c.474-1.898-.96-3.736-2.918-3.736-.914 0-1.778.415-2.348 1.13-6.273 7.84-9.69 17.582-9.69 27.624v55.99s11.06-2.21 21.048-16.74c1.834-2.67 4.854-4.248 8.072-4.413l-5.286 15.857 10.594 2.65 9.27-11.03-14.567-52.53z" fill="#F5F5F5"/><path fill="#FFE15A" d="M160.422 298.135l4.673 1.17-10.28-18.503 4.63-2.57 12.484 22.472h11.68V306h-5.69l7.34 5.876-3.31 4.138-6.24-4.992 2.46 7.38-5.024 1.677-4.836-14.52-9.183-2.297"/><path d="M159.78 226.552l12.088-6.045c2.22-1.11 3.372-3.614 2.77-6.022l-.684-2.735c-.474-1.898.96-3.736 2.918-3.736.914 0 1.778.415 2.348 1.13 6.273 7.84 9.69 17.582 9.69 27.624v55.99s-11.06-2.21-21.048-16.74c-1.834-2.67-4.853-4.248-8.072-4.413l5.286 15.857-10.593 2.648-9.27-11.03 14.566-52.528z" fill="#F5F5F5"/><path d="M125.352 208.014H112.11l3.973 5.297 9.27 2.65-5.298 2.65H128m29.13-10.59h13.242l-3.972 5.3-9.27 2.65 5.298 2.647h-7.945" fill="#FFE15A"/><path d="M158.996 205.938l-12.458 2.077-5.297 10.593-5.29-10.593-12.46-2.077c-1.43-.238-2.52 1.245-1.872 2.54l6.39 12.778-5.296 5.297h37.078l-5.298-5.297 6.39-12.778c.645-1.296-.45-2.78-1.878-2.54z" fill="#F5F5F5"/><circle cx="141.24" cy="185.34" r="3.972" fill="#FFBE50"/><ellipse cx="141.19" cy="194.82" rx="3.139" ry="2.207" fill="#41479B"/><ellipse cx="125.52" cy="194.82" rx="3.139" ry="2.207" fill="#FF4B55"/><g fill="#41479B"><ellipse cx="109.85" cy="194.82" rx="3.139" ry="2.207"/><ellipse cx="172.52" cy="194.82" rx="3.139" ry="2.207"/></g><ellipse cx="156.85" cy="194.82" rx="3.139" ry="2.207" fill="#FF4B55"/><g fill="#FFBE50"><circle cx="159.65" cy="185.34" r="3.972"/><circle cx="174.17" cy="185.34" r="3.972"/><circle cx="122.86" cy="185.34" r="3.972"/><circle cx="108.33" cy="185.34" r="3.972"/></g><path d="M145.803 162.994c.455-.78.735-1.678.735-2.648 0-2.925-2.37-5.297-5.297-5.297s-5.29 2.37-5.29 5.29c0 .97.28 1.864.738 2.65h9.124z" fill="#41479B"/><path d="M141.24 280.842c-10.952 0-19.86-8.91-19.86-19.862v-35.752h39.723v35.752c0 10.953-8.91 19.862-19.862 19.862z" fill="#FF4B55"/><path d="M159.78 226.552v34.428c0 10.238-8.3 18.538-18.54 18.538s-18.537-8.3-18.537-18.538v-34.428h37.076m2.64-2.648h-42.37v37.076c0 11.682 9.502 21.186 21.184 21.186s21.186-9.504 21.186-21.186v-37.076z" fill="#A54B50"/><g fill="#F5F5F5"><path d="M137.27 279.08c1.28.28 2.606.437 3.97.437s2.692-.158 3.973-.437v-52.53h-7.945v52.53z"/><path d="M122.7 248.4h37.08v7.945H122.7z"/></g></svg>