<svg xmlns="http://www.w3.org/2000/svg" viewBox="0 0 512 512"><path fill="#464655" d="M0 150.07v211.86L141.24 256"/><path d="M473.655 88.276H70.62l158.9 123.586H512v-85.24c0-21.18-17.167-38.346-38.345-38.346z" fill="#FF4B55"/><path d="M70.62 423.724h403.035c21.177 0 38.345-17.167 38.345-38.345v-85.244H229.517L70.62 423.724z" fill="#41479B"/><path d="M56.89 88.276H38.344C17.167 88.276 0 105.443 0 126.62v6.693L154.974 256 0 378.69v6.69c0 21.176 17.167 38.344 38.345 38.344h18.54l167.26-132.414H512v-70.62H224.148L56.888 88.276z" fill="#73AF00"/><path fill="#F5F5F5" d="M85.333 88.276H56.89L224.147 220.69H512v-17.656H230.29"/><path fill="#FFE15A" d="M0 133.313v22.518L126.53 256 0 356.173v22.518L154.974 256"/><path fill="#F5F5F5" d="M224.147 291.31L56.884 423.724H85.33l144.96-114.758H512V291.31"/></svg>