<svg viewBox="0 0 512 512" xmlns="http://www.w3.org/2000/svg"><path d="M0 385.38c0 21.176 17.167 38.344 38.345 38.344h435.31c21.177 0 38.345-17.167 38.345-38.345V353.1H0zM473.655 88.276H38.345C17.167 88.276 0 105.443 0 126.62v32.277h512V126.62c0-21.177-17.167-38.344-38.345-38.344z" fill="#c8414b"/><path d="M0 158.9h512v194.21H0z" fill="#ffd250"/><path d="M216.276 256l7.485-33.68c.69-3.103-1.67-6.045-4.845-6.045h-5.272c-3.176 0-5.536 2.943-4.85 6.044z" fill="#c8414b"/><path d="M207.45 238.34h17.655v75.03H207.45z" fill="#f5f5f5"/><path d="M203.03 229.52h26.483v8.828H203.03z" fill="#fab446"/><path d="M185.38 256h44.14v8.828h-44.14zm44.137 35.31l-26.483-8.827v-8.828l26.483 8.828zM83.862 256l7.485-33.68c.69-3.103-1.67-6.045-4.85-6.045h-5.27c-3.178 0-5.538 2.943-4.85 6.044z" fill="#c8414b"/><path d="M114.76 229.517c-4.876 0-8.83 3.953-8.83 8.828v57.38c0 10.724 10.01 30.896 44.14 30.896s44.137-20.17 44.137-30.893v-57.38c0-4.874-3.953-8.827-8.828-8.827z" fill="#f5f5f5"/><path d="M150.07 273.655h-44.14v-35.31c0-4.875 3.954-8.828 8.83-8.828h35.31zm0 0h44.137v22.07c0 12.188-9.88 22.068-22.07 22.068-12.188 0-22.068-9.88-22.068-22.07z" fill="#c8414b"/><path d="M105.93 273.655h44.14v22.07c0 12.188-9.88 22.068-22.07 22.068s-22.07-9.88-22.07-22.07z" fill="#fab446"/><path d="M141.24 313.28v-39.625h-8.827v43.693c3.284-.666 6.25-2.12 8.828-4.068zm-17.654 4.068v-43.693h-8.828v39.625c2.578 1.948 5.545 3.402 8.828 4.068z" fill="#c8414b"/><path d="M114.76 256h26.483v8.828H114.76z" fill="#ffb441"/><path d="M114.76 238.34h26.483v8.828H114.76z" fill="#fab446"/><path d="M119.17 243.59h17.655v15.992H119.17z" fill="#fab446"/><path d="M75.03 238.34h17.655v75.03H75.03z" fill="#f5f5f5"/><path d="M70.62 308.97h26.483v8.828H70.62zm0-79.45h26.483v8.828H70.62z" fill="#fab446"/><path d="M66.21 317.79h35.31v8.828H66.21z" fill="#5064aa"/><path d="M207.45 308.97h26.483v8.828H207.45z" fill="#fab446"/><path d="M198.62 317.79h35.31v8.828h-35.31z" fill="#5064aa"/><path d="M123.59 220.69h52.966v8.828H123.59z" fill="#fab446"/><path d="M145.66 194.21h8.828v26.483h-8.828z" fill="#ffb441"/><g fill="#f5f5f5"><path d="M141.24 207.448c-7.3 0-13.24-5.94-13.24-13.24 0-7.303 5.94-13.242 13.24-13.242 7.303 0 13.242 5.94 13.242 13.24 0 7.302-5.94 13.242-13.24 13.242zm0-17.655c-2.434 0-4.413 1.978-4.413 4.414 0 2.435 1.978 4.414 4.414 4.414s4.418-1.974 4.418-4.41c0-2.435-1.978-4.414-4.414-4.414z"/><path d="M158.897 207.448c-7.302 0-13.24-5.94-13.24-13.24 0-7.303 5.94-13.242 13.24-13.242 7.302 0 13.24 5.94 13.24 13.24s-5.94 13.242-13.24 13.242zm0-17.655c-2.435 0-4.414 1.978-4.414 4.414 0 2.435 1.978 4.414 4.414 4.414 2.435 0 4.414-1.974 4.414-4.41 0-2.435-1.975-4.414-4.41-4.414z"/><path d="M176.552 216.276c-7.302 0-13.24-5.94-13.24-13.24 0-7.303 5.94-13.242 13.24-13.242 7.302 0 13.24 5.94 13.24 13.24s-5.94 13.242-13.24 13.242zm0-17.655c-2.435 0-4.414 1.98-4.414 4.418s1.978 4.414 4.414 4.414c2.435 0 4.414-1.98 4.414-4.414s-1.98-4.414-4.414-4.414zm-52.966 17.658c-7.302 0-13.24-5.94-13.24-13.24 0-7.303 5.94-13.242 13.24-13.242 7.302 0 13.24 5.94 13.24 13.24.002 7.302-5.938 13.242-13.24 13.242zm0-17.655c-2.435 0-4.414 1.98-4.414 4.416s1.978 4.413 4.414 4.413 4.414-1.98 4.414-4.416c0-2.435-1.978-4.413-4.414-4.413z"/></g><path d="M176.552 291.31v4.414c0 2.434-1.98 4.414-4.414 4.414s-4.414-1.98-4.414-4.414v-4.414zm8.827-8.827h-26.487v13.24c0 7.303 5.94 13.242 13.24 13.242 7.303 0 13.242-5.94 13.242-13.24v-13.242z" fill="#fab446"/><path d="M172.138 264.828c-4.875 0-8.828-3.953-8.828-8.828v-8.828c0-4.875 3.953-8.828 8.828-8.828s8.828 3.953 8.828 8.828V256c0 4.875-3.953 8.828-8.828 8.828z" fill="#ffa0d2"/><circle cx="150.07" cy="273.65" fill="#5064aa" r="13.241"/><path d="M145.66 176.55h8.828v26.483h-8.828z" fill="#fab446"/><path d="M123.586 220.69l-8.828-8.828 5.17-5.17c7.994-7.994 18.836-12.485 30.14-12.485 11.306 0 22.147 4.49 30.14 12.484l5.172 5.175-8.828 8.828z" fill="#c8414b"/><circle cx="150.07" cy="211.86" fill="#ffd250" r="4.414"/><circle cx="132.41" cy="211.86" fill="#ffd250" r="4.414"/><circle cx="167.72" cy="211.86" fill="#ffd250" r="4.414"/><path d="M70.62 256h44.14v8.828H70.62zm0 35.31l26.483-8.827v-8.828l-26.482 8.828z" fill="#c8414b"/></svg>