<svg viewBox="0 0 512 512" xmlns="http://www.w3.org/2000/svg"><path d="M473.655 88.275H38.345C17.167 88.275 0 105.442 0 126.62v258.76c0 21.177 17.167 38.345 38.345 38.345h435.31c21.177 0 38.345-17.167 38.345-38.345V126.62c0-21.178-17.167-38.345-38.345-38.345z" fill="#ff4b55"/><path d="M253.474 225.75l13.837 18.102 21.61-7.232c1.21-.405 2.24.962 1.518 2.01l-12.94 18.753 13.557 18.314c.758 1.024-.224 2.423-1.444 2.06l-21.834-6.512-13.23 18.55c-.74 1.037-2.372.536-2.403-.737l-.555-22.777-21.73-6.84c-1.215-.383-1.244-2.092-.042-2.515l21.49-7.566-.2-22.783c-.014-1.272 1.604-1.826 2.377-.815zm-76.518 100.91c-38.995 0-70.627-31.632-70.627-70.662 0-38.958 31.63-70.662 70.62-70.662 14.51 0 27.885 4.462 39.04 12.014 1.704 1.156 3.653-1.087 2.224-2.573-16.663-17.325-40.248-27.894-66.398-27.002-44.927 1.533-82.12 37.553-84.99 82.413-3.288 51.384 37.4 94.087 88.054 94.087 24.954 0 47.38-10.432 63.394-27.11 1.417-1.475-.536-3.684-2.227-2.538-11.16 7.568-24.56 12.034-39.094 12.034z" fill="#f5f5f5"/></svg>