<svg viewBox="0 0 512 512" xmlns="http://www.w3.org/2000/svg"><path d="M473.655 88.276H38.345C17.167 88.276 0 105.443 0 126.62v258.76c0 21.177 17.167 38.345 38.345 38.345h435.31c21.177 0 38.345-17.167 38.345-38.345V126.62c0-21.177-17.167-38.344-38.345-38.344z" fill="#f5f5f5"/><path d="M2.11 114.08h507.78c-5.196-15.017-19.452-25.804-36.235-25.804H38.345c-16.784 0-31.04 10.787-36.236 25.804zM0 191.49h512v25.803H0zm0-51.61h512v25.803H0zm0 120.194c0 4.875 3.953 8.828 8.828 8.828H512v-25.804H0zm0 86.246h512v25.804H0zm509.89 51.6H2.11c5.196 15.017 19.452 25.804 36.235 25.804h435.31c16.784 0 31.04-10.787 36.236-25.804zM0 294.71h512v25.803H0z" fill="#ff4b55"/><path d="M8.828 268.902h220.69c4.875 0 8.828-3.953 8.828-8.828V97.104c0-4.877-3.953-8.83-8.828-8.83H38.345C17.167 88.277 0 105.444 0 126.622v133.454c0 4.876 3.953 8.828 8.828 8.828z" fill="#41479b"/><path d="M24.79 108.537l1.953 5.86 6.177.047c.8.007 1.13 1.027.488 1.502l-4.97 3.67 1.865 5.888c.242.762-.627 1.394-1.278.928L24 122.842l-5.025 3.59c-.65.467-1.518-.165-1.278-.927l1.864-5.89-4.96-3.668c-.642-.476-.31-1.496.49-1.502l6.177-.047 1.955-5.86c.253-.76 1.325-.76 1.58 0zm0 30.653l1.953 5.86 6.177.048c.8.007 1.13 1.026.488 1.502l-4.97 3.67 1.865 5.89c.242.76-.627 1.393-1.278.927L24 153.497l-5.025 3.59c-.65.466-1.518-.165-1.278-.927l1.864-5.89-4.96-3.67c-.642-.475-.31-1.494.49-1.5l6.177-.048 1.955-5.86c.253-.76 1.325-.76 1.58 0zm0 30.656l1.953 5.86 6.177.047c.8.007 1.13 1.026.488 1.502l-4.97 3.67 1.865 5.89c.242.76-.627 1.393-1.278.927L24 184.152l-5.025 3.59c-.65.466-1.518-.164-1.278-.927l1.864-5.89-4.96-3.67c-.642-.475-.31-1.494.49-1.5l6.177-.048 1.955-5.86c.253-.76 1.325-.76 1.58 0zm0 30.654l1.953 5.86 6.177.047c.8.007 1.13 1.027.488 1.502l-4.97 3.67 1.865 5.88c.242.76-.627 1.393-1.278.93L24 214.8l-5.025 3.59c-.65.47-1.518-.16-1.278-.923l1.864-5.89-4.96-3.67c-.642-.48-.31-1.5.49-1.508l6.177-.048 1.955-5.86c.253-.76 1.325-.76 1.58 0zm0 30.654l1.953 5.86 6.177.047c.8.01 1.13 1.03.488 1.51l-4.97 3.67 1.865 5.89c.242.76-.627 1.395-1.278.93L24 245.46l-5.025 3.59c-.65.466-1.518-.165-1.278-.927l1.864-5.89-4.96-3.67c-.642-.475-.31-1.494.49-1.5l6.177-.048 1.955-5.86c.253-.76 1.325-.76 1.58 0zm23.792-107.588l1.954 5.86 6.177.047c.8.007 1.13 1.027.488 1.502l-4.96 3.67 1.865 5.89c.24.76-.627 1.393-1.28.927L47.8 137.87l-5.026 3.592c-.65.465-1.52-.166-1.28-.928l1.865-5.89-4.97-3.67c-.645-.475-.31-1.494.49-1.5l6.173-.048 1.956-5.86c.252-.758 1.325-.758 1.58 0zm0 30.654l1.954 5.86 6.177.048c.8.007 1.13 1.027.488 1.502l-4.96 3.67 1.865 5.89c.24.76-.627 1.393-1.28.927l-5.024-3.592-5.025 3.592c-.65.465-1.52-.165-1.28-.928l1.865-5.89-4.97-3.67c-.644-.48-.31-1.5.49-1.51l6.174-.048 1.956-5.86c.253-.76 1.326-.76 1.58 0zm0 30.655l1.954 5.86 6.177.047c.8.007 1.13 1.026.488 1.502l-4.96 3.67 1.865 5.89c.24.76-.627 1.393-1.28.927l-5.024-3.59-5.025 3.59c-.65.47-1.52-.16-1.28-.92l1.865-5.89-4.97-3.67c-.644-.473-.31-1.492.49-1.5l6.174-.05 1.956-5.86c.253-.76 1.326-.76 1.58 0zm0 30.655l1.954 5.86 6.177.046c.8.007 1.13 1.026.488 1.502l-4.96 3.67 1.865 5.89c.24.76-.627 1.393-1.28.927l-5.024-3.592-5.025 3.592c-.65.466-1.52-.166-1.28-.928l1.865-5.89-4.97-3.67c-.644-.475-.31-1.494.49-1.5l6.174-.048 1.956-5.86c.253-.76 1.326-.76 1.58 0zm23.793-106.993l1.954 5.86 6.17.047c.8.007 1.13 1.027.49 1.502l-4.97 3.67 1.86 5.888c.24.762-.627 1.394-1.28.928l-5.023-3.592-5.025 3.592c-.65.466-1.518-.166-1.278-.928l1.862-5.89-4.97-3.668c-.643-.476-.31-1.496.49-1.502l6.175-.047 1.954-5.86c.25-.76 1.324-.76 1.58 0zm0 30.653l1.954 5.86 6.17.048c.8.007 1.13 1.026.49 1.502l-4.97 3.67 1.86 5.89c.24.76-.627 1.393-1.28.927l-5.023-3.592-5.025 3.592c-.65.465-1.518-.166-1.278-.928l1.862-5.89-4.97-3.67c-.643-.48-.31-1.5.49-1.51l6.175-.048 1.954-5.86c.25-.758 1.324-.758 1.58 0zm0 30.656l1.954 5.86 6.17.047c.8.007 1.13 1.026.49 1.502l-4.97 3.67 1.86 5.89c.24.76-.627 1.393-1.28.927l-5.023-3.592-5.025 3.592c-.65.465-1.518-.165-1.278-.928l1.862-5.89-4.97-3.67c-.643-.475-.31-1.494.49-1.5l6.175-.048 1.954-5.86c.25-.76 1.324-.76 1.58 0zm0 30.654l1.954 5.86 6.17.047c.8.007 1.13 1.027.49 1.502l-4.97 3.67 1.86 5.88c.24.76-.627 1.393-1.28.93l-5.023-3.59-5.025 3.59c-.65.464-1.518-.167-1.278-.93l1.862-5.89-4.97-3.67c-.643-.472-.31-1.493.49-1.5l6.175-.047 1.954-5.86c.25-.76 1.324-.76 1.58 0zm0 30.654l1.954 5.86 6.17.047c.8.01 1.13 1.03.49 1.51l-4.97 3.67 1.86 5.89c.24.76-.627 1.395-1.28.93l-5.023-3.59-5.025 3.59c-.65.465-1.518-.166-1.278-.928l1.862-5.89-4.97-3.67c-.643-.475-.31-1.494.49-1.5l6.175-.05 1.954-5.86c.25-.76 1.324-.76 1.58 0zM96.17 123.566l1.953 5.86 6.177.047c.8.007 1.13 1.027.488 1.502l-4.97 3.67 1.865 5.89c.242.76-.627 1.393-1.278.927l-5.025-3.592-5.025 3.592c-.65.465-1.518-.166-1.278-.928l1.864-5.89-4.96-3.67c-.642-.475-.31-1.494.49-1.5l6.177-.048 1.955-5.86c.25-.758 1.326-.758 1.58 0zm0 30.654l1.953 5.86 6.177.048c.8.007 1.13 1.027.488 1.502l-4.97 3.67 1.865 5.89c.242.76-.627 1.393-1.278.927l-5.025-3.592-5.025 3.592c-.65.465-1.518-.165-1.278-.928l1.864-5.89-4.96-3.67c-.642-.48-.31-1.5.49-1.51l6.177-.048 1.955-5.86c.25-.76 1.326-.76 1.58 0zm0 30.655l1.953 5.86 6.177.047c.8.007 1.13 1.026.488 1.502l-4.97 3.67 1.865 5.89c.242.76-.627 1.393-1.278.927l-5.025-3.59-5.025 3.59c-.65.47-1.518-.16-1.278-.92l1.864-5.89-4.96-3.67c-.642-.473-.31-1.492.49-1.5l6.177-.05 1.955-5.86c.25-.76 1.326-.76 1.58 0zm0 30.655l1.953 5.86 6.177.046c.8.007 1.13 1.026.488 1.502l-4.97 3.67 1.865 5.89c.242.76-.627 1.393-1.278.927l-5.025-3.592-5.025 3.592c-.65.466-1.518-.166-1.278-.928l1.864-5.89-4.96-3.67c-.642-.475-.31-1.494.49-1.5l6.177-.048 1.955-5.86c.25-.76 1.326-.76 1.58 0zm23.792-106.993l1.954 5.86 6.177.047c.8.007 1.13 1.027.488 1.502l-4.96 3.67 1.865 5.888c.24.762-.627 1.394-1.28.928l-5.025-3.59-5.026 3.59c-.65.467-1.52-.165-1.28-.927l1.863-5.89-4.97-3.668c-.642-.476-.31-1.496.49-1.502l6.176-.047 1.95-5.86c.253-.76 1.326-.76 1.58 0zm0 30.653l1.954 5.86 6.177.048c.8.007 1.13 1.026.488 1.502l-4.96 3.67 1.865 5.89c.24.76-.627 1.393-1.28.927l-5.025-3.592-5.026 3.592c-.65.465-1.52-.166-1.28-.928l1.863-5.89-4.97-3.67c-.642-.48-.31-1.5.49-1.51l6.176-.048 1.95-5.86c.253-.758 1.326-.758 1.58 0zm0 30.656l1.954 5.86 6.177.047c.8.007 1.13 1.026.488 1.502l-4.96 3.67 1.865 5.89c.24.76-.627 1.393-1.28.927l-5.025-3.593-5.026 3.59c-.65.46-1.52-.17-1.28-.93l1.863-5.89-4.97-3.67c-.642-.48-.31-1.5.49-1.5l6.176-.05 1.95-5.86c.253-.76 1.326-.76 1.58 0zm0 30.654l1.954 5.86 6.177.047c.8.007 1.13 1.027.488 1.502l-4.96 3.67 1.865 5.88c.24.76-.627 1.393-1.28.93l-5.025-3.59-5.026 3.59c-.65.464-1.52-.167-1.28-.93l1.863-5.89-4.97-3.67c-.642-.472-.31-1.493.49-1.5l6.176-.047 1.95-5.86c.253-.76 1.326-.76 1.58 0zm0 30.654l1.954 5.86 6.177.047c.8.01 1.13 1.03.488 1.51l-4.96 3.67 1.865 5.89c.24.76-.627 1.395-1.28.93l-5.025-3.59-5.026 3.59c-.65.465-1.52-.166-1.28-.928l1.863-5.89-4.97-3.67c-.642-.475-.31-1.494.49-1.5l6.176-.05 1.95-5.86c.253-.76 1.326-.76 1.58 0zm23.793-107.588l1.954 5.86 6.17.047c.8.007 1.13 1.027.49 1.502l-4.97 3.67 1.86 5.89c.24.76-.627 1.393-1.28.927l-5.023-3.592-5.025 3.592c-.65.465-1.518-.166-1.278-.928l1.862-5.89-4.97-3.67c-.643-.475-.31-1.494.49-1.5l6.175-.048 1.954-5.86c.252-.758 1.324-.758 1.58 0zm0 30.654l1.954 5.86 6.17.048c.8.007 1.13 1.027.49 1.502l-4.97 3.67 1.86 5.89c.24.76-.627 1.393-1.28.927l-5.023-3.592-5.025 3.592c-.65.465-1.518-.165-1.278-.928l1.862-5.89-4.97-3.67c-.643-.48-.31-1.5.49-1.51l6.175-.048 1.954-5.86c.252-.76 1.324-.76 1.58 0zm0 30.655l1.954 5.86 6.17.047c.8.007 1.13 1.026.49 1.502l-4.97 3.67 1.86 5.89c.24.76-.627 1.393-1.28.927l-5.023-3.59-5.025 3.59c-.65.47-1.518-.16-1.278-.92l1.862-5.89-4.97-3.67c-.643-.473-.31-1.492.49-1.5l6.175-.05 1.954-5.86c.252-.76 1.324-.76 1.58 0zm0 30.655l1.954 5.86 6.17.046c.8.007 1.13 1.026.49 1.502l-4.97 3.67 1.86 5.89c.24.76-.627 1.393-1.28.927l-5.023-3.592-5.025 3.592c-.65.466-1.518-.166-1.278-.928l1.862-5.89-4.97-3.67c-.643-.475-.31-1.494.49-1.5l6.175-.048 1.954-5.86c.252-.76 1.324-.76 1.58 0zm23.795-106.993l1.953 5.86 6.177.047c.8.007 1.13 1.027.488 1.502l-4.97 3.67 1.865 5.888c.242.762-.627 1.394-1.278.928l-5.025-3.592-5.025 3.592c-.65.466-1.518-.166-1.278-.928l1.864-5.89-4.96-3.668c-.642-.476-.31-1.496.49-1.502l6.177-.047 1.955-5.86c.25-.76 1.326-.76 1.58 0zm0 30.653l1.953 5.86 6.177.048c.8.007 1.13 1.026.488 1.502l-4.97 3.67 1.865 5.89c.242.76-.627 1.393-1.278.927l-5.025-3.592-5.025 3.592c-.65.465-1.518-.166-1.278-.928l1.864-5.89-4.96-3.67c-.642-.48-.31-1.5.49-1.51l6.177-.048 1.955-5.86c.25-.758 1.326-.758 1.58 0zm0 30.656l1.953 5.86 6.177.047c.8.007 1.13 1.026.488 1.502l-4.97 3.67 1.865 5.89c.242.76-.627 1.393-1.278.927l-5.025-3.592-5.025 3.592c-.65.465-1.518-.165-1.278-.928l1.864-5.89-4.96-3.67c-.642-.475-.31-1.494.49-1.5l6.177-.048 1.955-5.86c.25-.76 1.326-.76 1.58 0zm0 30.654l1.953 5.86 6.177.047c.8.007 1.13 1.027.488 1.502l-4.97 3.67 1.865 5.88c.242.76-.627 1.393-1.278.93l-5.025-3.59-5.025 3.59c-.65.464-1.518-.167-1.278-.93l1.864-5.89-4.96-3.67c-.642-.472-.31-1.493.49-1.5l6.177-.047 1.955-5.86c.25-.76 1.326-.76 1.58 0zm0 30.654l1.953 5.86 6.177.047c.8.01 1.13 1.03.488 1.51l-4.97 3.67 1.865 5.89c.242.76-.627 1.395-1.278.93l-5.025-3.59-5.025 3.59c-.65.465-1.518-.166-1.278-.928l1.864-5.89-4.96-3.67c-.642-.475-.31-1.494.49-1.5l6.177-.05 1.955-5.86c.25-.76 1.326-.76 1.58 0zm23.792-107.588l1.954 5.86 6.177.047c.8.007 1.13 1.027.488 1.502l-4.96 3.67 1.865 5.89c.24.76-.627 1.393-1.28.927l-5.024-3.592-5.025 3.592c-.65.465-1.52-.166-1.28-.928l1.865-5.89-4.97-3.67c-.644-.475-.31-1.494.49-1.5l6.174-.048 1.956-5.86c.253-.758 1.326-.758 1.58 0zm0 30.654l1.954 5.86 6.177.048c.8.007 1.13 1.027.488 1.502L195 165.3l1.864 5.89c.24.76-.627 1.393-1.28.927l-5.024-3.592-5.025 3.592c-.65.465-1.52-.165-1.28-.928l1.865-5.89-4.97-3.67c-.642-.48-.31-1.5.49-1.51l6.176-.048 1.956-5.86c.252-.76 1.325-.76 1.578 0zm0 30.655l1.954 5.86 6.177.047c.8.007 1.13 1.026.488 1.502l-4.96 3.67 1.865 5.89c.24.76-.627 1.393-1.28.927l-5.024-3.59-5.025 3.59c-.65.47-1.52-.16-1.28-.92l1.865-5.89-4.97-3.67c-.644-.473-.31-1.492.49-1.5l6.174-.05 1.956-5.86c.253-.76 1.326-.76 1.58 0zm0 30.655l1.954 5.86 6.177.046c.8.007 1.13 1.026.488 1.502l-4.96 3.67 1.865 5.89c.24.76-.627 1.393-1.28.927l-5.024-3.592-5.025 3.592c-.65.466-1.52-.166-1.28-.928l1.865-5.89-4.97-3.67c-.644-.475-.31-1.494.49-1.5l6.174-.048 1.956-5.86c.253-.76 1.326-.76 1.58 0zm23.794-106.993l1.954 5.86 6.177.047c.8.007 1.13 1.027.488 1.502l-4.97 3.67 1.865 5.888c.242.762-.627 1.394-1.278.928l-5.025-3.592-5.025 3.592c-.65.466-1.518-.166-1.278-.928l1.864-5.89-4.97-3.668c-.642-.476-.31-1.496.49-1.502l6.176-.047 1.954-5.86c.252-.76 1.324-.76 1.578 0zm0 30.653l1.954 5.86 6.177.048c.8.007 1.13 1.026.488 1.502l-4.97 3.67 1.865 5.89c.242.76-.627 1.393-1.278.927l-5.025-3.592-5.025 3.592c-.65.465-1.518-.166-1.278-.928l1.864-5.89-4.97-3.67c-.642-.48-.31-1.5.49-1.51l6.176-.048 1.954-5.86c.252-.758 1.324-.758 1.578 0zm0 30.656l1.954 5.86 6.177.047c.8.007 1.13 1.026.488 1.502l-4.97 3.67 1.865 5.89c.242.76-.627 1.393-1.278.927l-5.025-3.592-5.025 3.592c-.65.465-1.518-.165-1.278-.928l1.864-5.89-4.97-3.67c-.642-.475-.31-1.494.49-1.5l6.176-.048 1.954-5.86c.252-.76 1.324-.76 1.578 0zm0 30.654l1.954 5.86 6.177.047c.8.007 1.13 1.027.488 1.502l-4.97 3.67 1.865 5.88c.242.76-.627 1.393-1.278.93l-5.025-3.59-5.025 3.59c-.65.464-1.518-.167-1.278-.93l1.864-5.89-4.97-3.67c-.642-.472-.31-1.493.49-1.5l6.176-.047 1.954-5.86c.252-.76 1.324-.76 1.578 0zm0 30.654l1.954 5.86 6.177.047c.8.01 1.13 1.03.488 1.51l-4.97 3.67 1.865 5.89c.242.76-.627 1.395-1.278.93l-5.025-3.59-5.025 3.59c-.65.465-1.518-.166-1.278-.928l1.864-5.89-4.97-3.67c-.642-.475-.31-1.494.49-1.5l6.176-.05 1.954-5.86c.252-.76 1.324-.76 1.578 0z" fill="#f5f5f5"/></svg>