<svg viewBox="0 0 512 512" xmlns="http://www.w3.org/2000/svg"><path d="M473.655 88.276H38.345C17.167 88.276 0 105.443 0 126.62v258.76c0 21.177 17.167 38.345 38.345 38.345h435.31c21.177 0 38.345-17.167 38.345-38.345V126.62c0-21.177-17.167-38.344-38.345-38.344z" fill="#41479b"/><path d="M511.47 120.282c-3.023-18.16-18.798-32.007-37.815-32.007h-9.977l-163.54 107.147V88.276h-88.276v107.147L48.322 88.276h-9.977c-19.017 0-34.792 13.847-37.814 32.007l139.78 91.58H0v88.276h140.31L.53 391.715c3.023 18.16 18.798 32.007 37.815 32.007h9.977l163.54-107.147v107.147h88.276V316.577l163.54 107.147h9.977c19.017 0 34.792-13.847 37.814-32.007l-139.78-91.58H512V211.86H371.69z" fill="#f5f5f5"/><g fill="#ff4b55"><path d="M282.483 88.276h-52.966v141.24H0v52.967h229.517v141.24h52.966v-141.24H512v-52.966H282.483z"/><path d="M24.793 421.252l186.583-121.114h-32.428L9.224 410.31c4.153 4.847 9.49 8.645 15.57 10.942zm321.595-121.114H313.96l180.716 117.305c5.057-3.32 9.277-7.807 12.287-13.075zM4.05 109.475l157.73 102.387h32.427L15.475 95.842c-4.8 3.572-8.726 8.242-11.426 13.633zm328.516 102.387L502.6 101.487c-4.198-4.83-9.577-8.607-15.698-10.86L300.138 211.862z"/></g></svg>